<svg width="40" height="40" viewBox="0 0 40 40" fill="none" xmlns="http://www.w3.org/2000/svg">
<rect width="40" height="40" rx="20" fill="#4C9343" fill-opacity="0.16"/>
<path fill-rule="evenodd" clip-rule="evenodd" d="M15 9.25C15.4142 9.25 15.75 9.58579 15.75 10V11.75H16C16.015 11.75 16.0299 11.75 16.0447 11.75C16.4776 11.7499 16.8744 11.7499 17.1972 11.7933C17.5527 11.8411 17.9284 11.9535 18.2374 12.2626C18.5465 12.5716 18.6589 12.9473 18.7067 13.3028C18.7501 13.6256 18.7501 14.0224 18.75 14.4553C18.75 14.4701 18.75 14.485 18.75 14.5V15.8821C18.8169 15.935 18.8818 15.9927 18.9445 16.0555C19.4 16.5109 19.5857 17.0777 19.6701 17.7055C19.7284 18.139 19.7442 18.6545 19.7484 19.25H20.25L20.25 15.71C20.25 14.4516 20.2499 13.423 20.3656 12.6381C20.4856 11.8242 20.7528 11.0975 21.4336 10.6257C22.1145 10.1539 22.8887 10.1588 23.6929 10.3323C24.4684 10.4996 25.4316 10.8608 26.6098 11.3027L26.7057 11.3386C27.3012 11.5619 27.8051 11.7509 28.2009 11.9518C28.6219 12.1655 28.9859 12.4236 29.2603 12.8196C29.5347 13.2156 29.6486 13.647 29.7009 14.1162C29.75 14.5575 29.75 15.0956 29.75 15.7316V29.25H30C30.4142 29.25 30.75 29.5858 30.75 30C30.75 30.4142 30.4142 30.75 30 30.75H10C9.58579 30.75 9.25 30.4142 9.25 30C9.25 29.5858 9.58579 29.25 10 29.25H10.25L10.25 19.948C10.25 19.0495 10.2499 18.3003 10.3299 17.7055C10.4143 17.0777 10.6 16.5109 11.0555 16.0555C11.1182 15.9927 11.1831 15.935 11.25 15.8821V14.5C11.25 14.485 11.25 14.4701 11.25 14.4553C11.2499 14.0224 11.2499 13.6256 11.2933 13.3028C11.3411 12.9473 11.4535 12.5716 11.7626 12.2626C12.0716 11.9535 12.4473 11.8411 12.8028 11.7933C13.1256 11.7499 13.5224 11.7499 13.9552 11.75C13.9701 11.75 13.985 11.75 14 11.75H14.25V10C14.25 9.58579 14.5858 9.25 15 9.25ZM12.75 15.3241C13.3375 15.2499 14.0718 15.25 14.948 15.25H15.052C15.9282 15.25 16.6625 15.2499 17.25 15.3241V14.5C17.25 14.0074 17.2484 13.7134 17.2201 13.5027C17.2071 13.4061 17.1918 13.3577 17.1828 13.336C17.1808 13.3309 17.1791 13.3276 17.1781 13.3257L17.1768 13.3232L17.1743 13.3219C17.1724 13.3209 17.1691 13.3192 17.164 13.3172C17.1423 13.3082 17.0939 13.2929 16.9973 13.2799C16.7866 13.2516 16.4926 13.25 16 13.25H14C13.5074 13.25 13.2134 13.2516 13.0027 13.2799C12.9061 13.2929 12.8577 13.3082 12.836 13.3172C12.8309 13.3192 12.8276 13.3209 12.8257 13.3219L12.8232 13.3232L12.8219 13.3257C12.8209 13.3276 12.8192 13.3309 12.8172 13.336C12.8082 13.3577 12.7929 13.4061 12.7799 13.5027C12.7516 13.7134 12.75 14.0074 12.75 14.5V15.3241ZM11.75 29.25H14.25L14.25 23.948C14.25 23.0495 14.2499 22.3003 14.3299 21.7055C14.4143 21.0777 14.6 20.5109 15.0555 20.0555C15.5109 19.6 16.0777 19.4143 16.7055 19.3299C17.1386 19.2717 17.6534 19.2559 18.2482 19.2516C18.244 18.6814 18.23 18.2512 18.1835 17.9054C18.1214 17.4439 18.0142 17.2464 17.8839 17.1161C17.7536 16.9858 17.5561 16.8786 17.0946 16.8165C16.6116 16.7516 15.964 16.75 15 16.75C14.036 16.75 13.3884 16.7516 12.9054 16.8165C12.4439 16.8786 12.2464 16.9858 12.1161 17.1161C11.9858 17.2464 11.8786 17.4439 11.8165 17.9054C11.7516 18.3884 11.75 19.036 11.75 20V29.25ZM15.75 29.25H24.25V24C24.25 23.036 24.2484 22.3884 24.1835 21.9054C24.1214 21.4439 24.0142 21.2464 23.8839 21.1161C23.7536 20.9858 23.5561 20.8786 23.0946 20.8165C22.6116 20.7516 21.964 20.75 21 20.75H19C18.036 20.75 17.3884 20.7516 16.9054 20.8165C16.4439 20.8786 16.2464 20.9858 16.1161 21.1161C15.9858 21.2464 15.8786 21.4439 15.8165 21.9054C15.7516 22.3884 15.75 23.036 15.75 24V29.25ZM25.75 29.25H28.25V15.772C28.25 15.0848 28.2489 14.6308 28.2101 14.2824C28.1734 13.9527 28.1091 13.7919 28.0274 13.674C27.9457 13.5561 27.8177 13.4395 27.5219 13.2893C27.2094 13.1307 26.7846 12.9702 26.1412 12.7289C24.8906 12.26 24.0312 11.9398 23.3766 11.7986C22.7379 11.6608 22.468 11.7339 22.288 11.8586C22.108 11.9833 21.9448 12.2104 21.8496 12.8568C21.752 13.5193 21.75 14.4364 21.75 15.772V19.2516C22.3455 19.2558 22.861 19.2716 23.2945 19.3299C23.9223 19.4143 24.4891 19.6 24.9445 20.0555C25.4 20.5109 25.5857 21.0777 25.6701 21.7055C25.7501 22.3003 25.75 23.0495 25.75 23.948L25.75 29.25ZM12.8232 13.3232C12.8236 13.323 12.8236 13.3228 12.8232 13.3232C12.8228 13.3237 12.823 13.3236 12.8232 13.3232ZM17.25 23C17.25 22.5858 17.5858 22.25 18 22.25H22C22.4142 22.25 22.75 22.5858 22.75 23C22.75 23.4142 22.4142 23.75 22 23.75H18C17.5858 23.75 17.25 23.4142 17.25 23ZM17.25 26C17.25 25.5858 17.5858 25.25 18 25.25H22C22.4142 25.25 22.75 25.5858 22.75 26C22.75 26.4142 22.4142 26.75 22 26.75H18C17.5858 26.75 17.25 26.4142 17.25 26Z" fill="#4C9343"/>
</svg>
