<svg width="40" height="40" viewBox="0 0 40 40" fill="none" xmlns="http://www.w3.org/2000/svg">
<rect width="40" height="40" rx="20" fill="#4C9343" fill-opacity="0.16"/>
<path fill-rule="evenodd" clip-rule="evenodd" d="M22.948 9.25H25.052C25.9505 9.24997 26.6997 9.24995 27.2945 9.32991C27.9223 9.41432 28.4891 9.59999 28.9445 10.0555C29.4 10.5109 29.5857 11.0777 29.6701 11.7055C29.7501 12.3003 29.75 13.0495 29.75 13.948V29.25H30C30.4142 29.25 30.75 29.5858 30.75 30C30.75 30.4142 30.4142 30.75 30 30.75H10C9.58579 30.75 9.25 30.4142 9.25 30C9.25 29.5858 9.58579 29.25 10 29.25H10.25L10.25 16.948C10.25 16.0495 10.2499 15.3003 10.3299 14.7055C10.4143 14.0777 10.6 13.5109 11.0555 13.0555C11.5109 12.6 12.0777 12.4143 12.7055 12.3299C13.3003 12.2499 14.0495 12.25 14.948 12.25L18.278 12.25C18.3294 11.3758 18.4906 10.6203 19.0555 10.0555C19.5109 9.59999 20.0777 9.41432 20.7055 9.32991C21.3003 9.24995 22.0495 9.24997 22.948 9.25ZM19.0068 13.75C19.0055 13.75 19.0043 13.75 19.003 13.75C19.002 13.75 19.001 13.75 19 13.75H15C14.036 13.75 13.3884 13.7516 12.9054 13.8165C12.4439 13.8786 12.2464 13.9858 12.1161 14.1161C11.9858 14.2464 11.8786 14.4439 11.8165 14.9054C11.7516 15.3884 11.75 16.036 11.75 17V29.25H16.25V27C16.25 26.5858 16.5858 26.25 17 26.25C17.4142 26.25 17.75 26.5858 17.75 27V29.25H22.25V17C22.25 16.036 22.2484 15.3884 22.1835 14.9054C22.1214 14.4439 22.0142 14.2464 21.8839 14.1161C21.7536 13.9858 21.5561 13.8786 21.0946 13.8165C20.6127 13.7517 19.9671 13.75 19.0068 13.75ZM23.75 29.25L23.75 16.948C23.75 16.0495 23.7501 15.3003 23.6701 14.7055C23.5857 14.0777 23.4 13.5109 22.9445 13.0555C22.4891 12.6 21.9223 12.4143 21.2945 12.3299C20.8691 12.2727 20.3648 12.2564 19.7834 12.2518C19.8335 11.5522 19.9436 11.2886 20.1161 11.1161C20.2464 10.9858 20.4439 10.8786 20.9054 10.8165C21.3884 10.7516 22.036 10.75 23 10.75H25C25.964 10.75 26.6116 10.7516 27.0946 10.8165C27.5561 10.8786 27.7536 10.9858 27.8839 11.1161C28.0142 11.2464 28.1214 11.4439 28.1835 11.9054C28.2484 12.3884 28.25 13.036 28.25 14V29.25H23.75ZM13.25 16C13.25 15.5858 13.5858 15.25 14 15.25H20C20.4142 15.25 20.75 15.5858 20.75 16C20.75 16.4142 20.4142 16.75 20 16.75H14C13.5858 16.75 13.25 16.4142 13.25 16ZM13.25 19C13.25 18.5858 13.5858 18.25 14 18.25H20C20.4142 18.25 20.75 18.5858 20.75 19C20.75 19.4142 20.4142 19.75 20 19.75H14C13.5858 19.75 13.25 19.4142 13.25 19ZM13.25 22C13.25 21.5858 13.5858 21.25 14 21.25H20C20.4142 21.25 20.75 21.5858 20.75 22C20.75 22.4142 20.4142 22.75 20 22.75H14C13.5858 22.75 13.25 22.4142 13.25 22Z" fill="#4C9343"/>
</svg>
