<svg width="40" height="40" viewBox="0 0 40 40" fill="none" xmlns="http://www.w3.org/2000/svg">
<rect width="40" height="40" rx="20" fill="#4C9343" fill-opacity="0.16"/>
<path fill-rule="evenodd" clip-rule="evenodd" d="M15.9451 10.25H24.0549C25.4225 10.25 26.5248 10.25 27.3918 10.3665C28.2919 10.4875 29.0497 10.7464 29.6517 11.3484C30.2536 11.9503 30.5125 12.7081 30.6335 13.6083C30.75 14.4752 30.75 15.5775 30.75 16.9451V18.0549C30.75 19.4225 30.75 20.5248 30.6335 21.3918C30.5125 22.2919 30.2536 23.0497 29.6517 23.6517C29.0497 24.2536 28.2919 24.5125 27.3918 24.6335C26.5248 24.75 25.4225 24.75 24.0549 24.75H20.75V26.4594L26.2372 28.2885C26.6301 28.4195 26.8425 28.8442 26.7115 29.2372C26.5805 29.6301 26.1558 29.8425 25.7628 29.7115L20 27.7906L14.2372 29.7115C13.8442 29.8425 13.4195 29.6301 13.2885 29.2372C13.1575 28.8442 13.3699 28.4195 13.7628 28.2885L19.25 26.4594V24.75H15.9451C14.5775 24.75 13.4752 24.75 12.6082 24.6335C11.7081 24.5125 10.9503 24.2536 10.3484 23.6517C9.74643 23.0497 9.48754 22.2919 9.36652 21.3918C9.24996 20.5248 9.24998 19.4225 9.25 18.0549V16.9451C9.24998 15.5775 9.24996 14.4752 9.36652 13.6082C9.48754 12.7081 9.74643 11.9503 10.3484 11.3484C10.9503 10.7464 11.7081 10.4875 12.6082 10.3665C13.4752 10.25 14.5775 10.25 15.9451 10.25ZM12.8081 11.8531C12.0743 11.9518 11.6858 12.1322 11.409 12.409C11.1322 12.6858 10.9518 13.0743 10.8531 13.8081C10.7516 14.5635 10.75 15.5646 10.75 17V18C10.75 19.4354 10.7516 20.4365 10.8531 21.1919C10.9518 21.9257 11.1322 22.3142 11.409 22.591C11.6858 22.8678 12.0743 23.0482 12.8081 23.1469C13.5635 23.2484 14.5646 23.25 16 23.25H24C25.4354 23.25 26.4365 23.2484 27.1919 23.1469C27.9257 23.0482 28.3142 22.8678 28.591 22.591C28.8678 22.3142 29.0482 21.9257 29.1469 21.1919C29.2484 20.4365 29.25 19.4354 29.25 18V17C29.25 15.5646 29.2484 14.5635 29.1469 13.8081C29.0482 13.0743 28.8678 12.6858 28.591 12.409C28.3142 12.1322 27.9257 11.9518 27.1919 11.8531C26.4365 11.7516 25.4354 11.75 24 11.75H16C14.5646 11.75 13.5635 11.7516 12.8081 11.8531Z" fill="#4C9343"/>
</svg>
