<svg width="40" height="40" viewBox="0 0 40 40" fill="none" xmlns="http://www.w3.org/2000/svg">
<rect width="40" height="40" rx="20" fill="#4C9343" fill-opacity="0.16"/>
<path fill-rule="evenodd" clip-rule="evenodd" d="M18.948 9.25H21.052C21.9505 9.24997 22.6997 9.24995 23.2945 9.32991C23.9223 9.41432 24.4891 9.59999 24.9445 10.0555C25.4 10.5109 25.5857 11.0777 25.6701 11.7055C25.6928 11.8746 25.7091 12.0561 25.7207 12.25C26.3101 12.2504 26.8084 12.2542 27.219 12.296C27.6925 12.3442 28.1318 12.4489 28.5278 12.7135C28.8281 12.9141 29.0859 13.1719 29.2865 13.4722C29.5511 13.8682 29.6559 14.3075 29.704 14.781C29.75 15.2334 29.75 15.7921 29.75 16.4617V29.25H30C30.4142 29.25 30.75 29.5858 30.75 30C30.75 30.4142 30.4142 30.75 30 30.75H10C9.58579 30.75 9.25 30.4142 9.25 30C9.25 29.5858 9.58579 29.25 10 29.25H10.25L10.25 16.4617C10.25 15.7921 10.25 15.2334 10.296 14.781C10.3441 14.3075 10.4489 13.8682 10.7135 13.4722C10.9141 13.1719 11.1719 12.9141 11.4722 12.7135C11.8682 12.4489 12.3075 12.3442 12.781 12.296C13.1916 12.2542 13.6899 12.2504 14.2793 12.25C14.2909 12.0561 14.3072 11.8746 14.3299 11.7055C14.4143 11.0777 14.6 10.5109 15.0555 10.0555C15.5109 9.59999 16.0777 9.41432 16.7055 9.32991C17.3003 9.24995 18.0495 9.24997 18.948 9.25ZM14.25 13.7501C13.6674 13.7508 13.2559 13.7554 12.9328 13.7883C12.578 13.8244 12.414 13.8882 12.3055 13.9607C12.169 14.0519 12.0519 14.1691 11.9607 14.3055C11.8882 14.414 11.8244 14.578 11.7883 14.9328C11.7509 15.3002 11.75 15.7822 11.75 16.5V29.25H14.25V22.75H13.5C13.0858 22.75 12.75 22.4142 12.75 22C12.75 21.5858 13.0858 21.25 13.5 21.25H14.25V19.75H13.5C13.0858 19.75 12.75 19.4142 12.75 19C12.75 18.5858 13.0858 18.25 13.5 18.25H14.25V16.75H13.5C13.0858 16.75 12.75 16.4142 12.75 16C12.75 15.5858 13.0858 15.25 13.5 15.25H14.25L14.25 13.948C14.25 13.8812 14.25 13.8152 14.25 13.7501ZM15.75 29.25H19.25V27C19.25 26.5858 19.5858 26.25 20 26.25C20.4142 26.25 20.75 26.5858 20.75 27V29.25H24.25V14C24.25 13.036 24.2484 12.3884 24.1835 11.9054C24.1214 11.4439 24.0142 11.2464 23.8839 11.1161C23.7536 10.9858 23.5561 10.8786 23.0946 10.8165C22.6116 10.7516 21.964 10.75 21 10.75H19C18.036 10.75 17.3884 10.7516 16.9054 10.8165C16.4439 10.8786 16.2464 10.9858 16.1161 11.1161C15.9858 11.2464 15.8786 11.4439 15.8165 11.9054C15.7516 12.3884 15.75 13.036 15.75 14V29.25ZM25.75 16.75H26.5C26.9142 16.75 27.25 16.4142 27.25 16C27.25 15.5858 26.9142 15.25 26.5 15.25H25.75L25.75 13.948C25.75 13.8812 25.75 13.8152 25.75 13.7501C26.3326 13.7508 26.7441 13.7554 27.0672 13.7883C27.422 13.8244 27.586 13.8882 27.6945 13.9607C27.8309 14.0519 27.9481 14.1691 28.0393 14.3055C28.1118 14.414 28.1756 14.578 28.2117 14.9328C28.2491 15.3002 28.25 15.7822 28.25 16.5V29.25H25.75V22.75H26.5C26.9142 22.75 27.25 22.4142 27.25 22C27.25 21.5858 26.9142 21.25 26.5 21.25H25.75V19.75H26.5C26.9142 19.75 27.25 19.4142 27.25 19C27.25 18.5858 26.9142 18.25 26.5 18.25H25.75V16.75ZM20 12.25C20.4142 12.25 20.75 12.5858 20.75 13V14.25H22C22.4142 14.25 22.75 14.5858 22.75 15C22.75 15.4142 22.4142 15.75 22 15.75H20.75V17C20.75 17.4142 20.4142 17.75 20 17.75C19.5858 17.75 19.25 17.4142 19.25 17V15.75H18C17.5858 15.75 17.25 15.4142 17.25 15C17.25 14.5858 17.5858 14.25 18 14.25H19.25V13C19.25 12.5858 19.5858 12.25 20 12.25ZM17.25 20C17.25 19.5858 17.5858 19.25 18 19.25H22C22.4142 19.25 22.75 19.5858 22.75 20C22.75 20.4142 22.4142 20.75 22 20.75H18C17.5858 20.75 17.25 20.4142 17.25 20ZM17.25 23C17.25 22.5858 17.5858 22.25 18 22.25H22C22.4142 22.25 22.75 22.5858 22.75 23C22.75 23.4142 22.4142 23.75 22 23.75H18C17.5858 23.75 17.25 23.4142 17.25 23Z" fill="#4C9343"/>
</svg>
