<svg width="40" height="40" viewBox="0 0 40 40" fill="none" xmlns="http://www.w3.org/2000/svg">
<rect width="40" height="40" rx="20" fill="#4C9343" fill-opacity="0.16"/>
<path fill-rule="evenodd" clip-rule="evenodd" d="M17.9506 9.25H18.0494C18.7142 9.24996 19.2871 9.24993 19.7458 9.31161C20.2375 9.37771 20.7087 9.52677 21.091 9.90901C21.4732 10.2913 21.6223 10.7625 21.6884 11.2542C21.7272 11.5428 21.7416 11.8766 21.7469 12.25H22.3197C23.2124 12.25 24.0927 12.4578 24.8911 12.857L25.0093 12.9161C25.9527 11.8967 27.6234 11.8776 28.875 12.6002C30.2867 13.4153 31.1478 15.1638 30.3146 16.6068C29.4815 18.0499 27.5367 18.1784 26.125 17.3634C25.0041 16.7162 24.2304 15.4806 24.3763 14.2767L24.2203 14.1987C23.6302 13.9036 22.9795 13.75 22.3197 13.75H21.75L21.75 15C21.75 15.0149 21.7496 15.0297 21.7487 15.0444C24.5261 16.2871 26.5168 18.8696 26.7309 21.9436C26.7503 22.0279 26.7553 22.1158 26.7447 22.2031C26.7482 22.3 26.75 22.3973 26.75 22.495C26.75 24.616 25.8998 26.5448 24.5157 27.9988L24.498 28.0174C24.2853 28.241 24.0762 28.4607 23.7913 28.6693C23.4966 28.8851 23.1472 29.0713 22.6493 29.2848C21.5638 29.7502 20.7751 29.7501 19.5168 29.75H16.4832C15.2249 29.7501 14.4362 29.7502 13.3507 29.2848C12.8528 29.0713 12.5034 28.8851 12.2087 28.6693C11.9238 28.4607 11.7147 28.241 11.502 28.0174L11.4843 27.9988C10.1002 26.5448 9.25 24.616 9.25 22.495C9.25 19.1804 11.3093 16.3607 14.2513 15.0444C14.2504 15.0297 14.25 15.0149 14.25 15L14.25 14.9976V13.5C14.25 13.4869 14.2503 13.4738 14.251 13.4608C14.2503 13.4479 14.25 13.4348 14.25 13.4217L14.25 12.9506C14.25 12.2858 14.2499 11.7129 14.3116 11.2542C14.3777 10.7625 14.5268 10.2913 14.909 9.90901C15.2913 9.52677 15.7625 9.37771 16.2542 9.31161C16.7129 9.24993 17.2858 9.24996 17.9506 9.25ZM25.0527 20.93C24.2982 17.9876 21.4637 15.7534 18.0078 15.75H17.9922C14.7318 15.7532 12.0245 17.742 11.095 20.4378C11.3811 20.5641 11.6713 20.7044 11.9599 20.8451L12.0804 20.9039C12.4422 21.0806 12.8069 21.2586 13.1906 21.4285C14.039 21.8043 14.9418 22.1223 15.9446 22.2352C17.2037 22.377 18.1612 21.9399 19.3146 21.4133L19.326 21.4081C20.4605 20.8901 21.786 20.2896 23.5208 20.5777C24.0499 20.6656 24.5747 20.7861 25.0527 20.93ZM10.7744 21.9399C10.9423 22.0183 11.1176 22.1032 11.3024 22.1934L11.4233 22.2523C11.7822 22.4276 12.1723 22.6181 12.5831 22.8C13.5018 23.207 14.5618 23.589 15.7768 23.7258C17.4529 23.9145 18.7452 23.3233 19.8399 22.8224L19.949 22.7726C21.0909 22.2512 22.0363 21.8517 23.275 22.0575C24.0503 22.1862 24.7523 22.3829 25.2494 22.586C25.2256 24.2591 24.5471 25.7903 23.4292 26.9646C23.198 27.2075 23.0732 27.336 22.905 27.4591C22.7387 27.5809 22.5038 27.7151 22.0582 27.9062C21.2733 28.2427 20.7683 28.25 19.4584 28.25H16.5416C15.2317 28.25 14.7267 28.2427 13.9418 27.9062C13.4962 27.7151 13.2613 27.5809 13.095 27.4591C12.9268 27.336 12.802 27.2075 12.5708 26.9646C11.4326 25.769 10.75 24.2036 10.75 22.495C10.75 22.3083 10.7582 22.1231 10.7744 21.9399ZM20.25 14.25L15.75 14.25V13.7169C15.8086 13.7063 15.8687 13.6923 15.9289 13.6737C16.1312 13.611 16.3659 13.4856 16.5372 13.2393C16.7029 13.001 16.75 12.7342 16.75 12.5C16.75 12.2659 16.7029 11.9989 16.5371 11.7606C16.3656 11.5142 16.1307 11.3889 15.9284 11.3265C15.8936 11.3157 15.8588 11.3065 15.8243 11.2986C15.867 11.0934 15.9229 11.0165 15.9697 10.9697C16.0268 10.9126 16.1287 10.842 16.454 10.7982C16.8009 10.7516 17.2717 10.75 18 10.75C18.7283 10.75 19.1991 10.7516 19.546 10.7982C19.8713 10.842 19.9732 10.9126 20.0303 10.9697C20.0874 11.0268 20.158 11.1287 20.2018 11.454C20.2484 11.8009 20.25 12.2717 20.25 13V14.25ZM26.875 16.0643C25.8953 15.4987 25.7131 14.5769 25.9845 14.1068C26.2559 13.6367 27.1453 13.3336 28.125 13.8993C29.1048 14.4649 29.287 15.3867 29.0156 15.8568C28.7442 16.3269 27.8548 16.63 26.875 16.0643Z" fill="#4C9343"/>
</svg>
