<svg width="40" height="40" viewBox="0 0 40 40" fill="none" xmlns="http://www.w3.org/2000/svg">
<rect width="40" height="40" rx="20" fill="#4C9343" fill-opacity="0.16"/>
<path fill-rule="evenodd" clip-rule="evenodd" d="M19.9436 9.25H20.0564C21.8942 9.24998 23.3498 9.24997 24.489 9.40314C25.6614 9.56076 26.6104 9.89288 27.3588 10.6412C28.1071 11.3896 28.4392 12.3386 28.5969 13.511C28.6996 14.275 28.7334 15.1814 28.7445 16.25H29C29.9665 16.25 30.75 17.0335 30.75 18V19C30.75 19.5508 30.4907 20.0695 30.05 20.4L28.7475 21.3768C28.7402 22.6093 28.7113 23.6375 28.5969 24.489C28.4392 25.6614 28.1071 26.6104 27.3588 27.3588C27.1689 27.5486 26.9661 27.7117 26.75 27.852V29C26.75 29.9665 25.9665 30.75 25 30.75H23.5C22.5335 30.75 21.75 29.9665 21.75 29V28.7445C21.2253 28.75 20.6616 28.75 20.0564 28.75H19.9436C19.3384 28.75 18.7747 28.75 18.25 28.7445V29C18.25 29.9665 17.4665 30.75 16.5 30.75H15C14.0335 30.75 13.25 29.9665 13.25 29V27.852C13.0339 27.7117 12.8311 27.5486 12.6412 27.3588C11.8929 26.6104 11.5608 25.6614 11.4031 24.489C11.2887 23.6375 11.2597 22.6093 11.2525 21.3768L9.95 20.4C9.50934 20.0695 9.25 19.5508 9.25 19V18C9.25 17.0335 10.0335 16.25 11 16.25H11.2555C11.2666 15.1814 11.3004 14.275 11.4031 13.511C11.5608 12.3386 11.8929 11.3896 12.6412 10.6412C13.3896 9.89288 14.3386 9.56076 15.511 9.40314C16.6502 9.24997 18.1058 9.24998 19.9436 9.25ZM11.25 17.75H11C10.8619 17.75 10.75 17.8619 10.75 18V19C10.75 19.0787 10.787 19.1528 10.85 19.2L11.25 19.5L11.25 17.9436C11.25 17.8786 11.25 17.8141 11.25 17.75ZM12.7557 21.75C12.7666 22.7836 12.7982 23.6082 12.8898 24.2892C13.025 25.2952 13.2787 25.8749 13.7019 26.2981C14.1251 26.7213 14.7048 26.975 15.7108 27.1102C16.7385 27.2484 18.0932 27.25 20 27.25C21.9068 27.25 23.2615 27.2484 24.2892 27.1102C25.2952 26.975 25.8749 26.7213 26.2981 26.2981C26.7213 25.8749 26.975 25.2952 27.1102 24.2892C27.2018 23.6082 27.2334 22.7836 27.2443 21.75H12.7557ZM27.25 20.25H12.75C12.75 20.1677 12.75 20.0844 12.75 20V18C12.75 16.1173 12.7516 14.7729 12.8846 13.75H27.1154C27.2484 14.7729 27.25 16.1173 27.25 18V20C27.25 20.0844 27.25 20.1677 27.25 20.25ZM28.75 19.5L29.15 19.2C29.213 19.1528 29.25 19.0787 29.25 19V18C29.25 17.8619 29.1381 17.75 29 17.75H28.75C28.75 17.8141 28.75 17.8786 28.75 17.9436V19.5ZM26.701 12.25C26.5882 12.0367 26.4548 11.8586 26.2981 11.7019C25.8749 11.2787 25.2952 11.025 24.2892 10.8898C23.2615 10.7516 21.9068 10.75 20 10.75C18.0932 10.75 16.7385 10.7516 15.7108 10.8898C14.7048 11.025 14.1251 11.2787 13.7019 11.7019C13.5452 11.8586 13.4118 12.0367 13.299 12.25H26.701ZM14.75 28.4605V29C14.75 29.1381 14.8619 29.25 15 29.25H16.5C16.6381 29.25 16.75 29.1381 16.75 29V28.7042C16.3007 28.6815 15.8884 28.6476 15.511 28.5969C15.246 28.5612 14.9924 28.5167 14.75 28.4605ZM23.25 28.7042V29C23.25 29.1381 23.3619 29.25 23.5 29.25H25C25.1381 29.25 25.25 29.1381 25.25 29V28.4605C25.0076 28.5167 24.754 28.5612 24.489 28.5969C24.1116 28.6476 23.6993 28.6815 23.25 28.7042ZM14.25 24C14.25 23.5858 14.5858 23.25 15 23.25H16.5C16.9142 23.25 17.25 23.5858 17.25 24C17.25 24.4142 16.9142 24.75 16.5 24.75H15C14.5858 24.75 14.25 24.4142 14.25 24ZM22.75 24C22.75 23.5858 23.0858 23.25 23.5 23.25H25C25.4142 23.25 25.75 23.5858 25.75 24C25.75 24.4142 25.4142 24.75 25 24.75H23.5C23.0858 24.75 22.75 24.4142 22.75 24Z" fill="#4C9343"/>
</svg>
