<svg width="40" height="40" viewBox="0 0 40 40" fill="none" xmlns="http://www.w3.org/2000/svg">
<rect width="40" height="40" rx="20" fill="#4C9343" fill-opacity="0.16"/>
<path fill-rule="evenodd" clip-rule="evenodd" d="M21.4615 12.0466C22.665 12.869 23.8622 13.8592 25.0013 14.9983C26.1405 16.1375 27.1306 17.3347 27.9531 18.5382C28.6541 17.1607 29.0756 15.8564 29.2061 14.7248C29.3708 13.2978 29.0676 12.2433 28.4119 11.5877C27.7563 10.9321 26.7019 10.6289 25.2748 10.7935C24.1433 10.9241 22.839 11.3455 21.4615 12.0466ZM28.8685 19.9999C29.8739 18.2347 30.514 16.4765 30.6962 14.8968C30.8913 13.2064 30.5674 11.6219 29.4726 10.5271C28.3778 9.43222 26.7933 9.10838 25.1029 9.30341C23.5232 9.48568 21.765 10.1258 19.9998 11.1312C18.2347 10.1258 16.4765 9.48578 14.8969 9.30354C13.2066 9.10853 11.6221 9.43238 10.5273 10.5272C9.43247 11.622 9.10863 13.2065 9.30365 14.8968C9.4859 16.4765 10.126 18.2347 11.1313 19.9999C10.1261 21.765 9.48605 23.5231 9.30383 25.1027C9.10885 26.793 9.4327 28.3774 10.5275 29.4722C11.6223 30.567 13.2067 30.8909 14.897 30.6959C16.4766 30.5137 18.2348 29.8736 19.9998 28.8684C21.7649 29.8737 23.5231 30.5138 25.1028 30.696C26.7931 30.891 28.3776 30.5672 29.4724 29.4724C30.5672 28.3775 30.8911 26.7931 30.6961 25.1028C30.5138 23.5231 29.8738 21.765 28.8685 19.9999ZM27.1192 19.9999C26.2823 18.6747 25.214 17.3324 23.9406 16.059C22.6673 14.7856 21.3249 13.7174 19.9998 12.8804C18.6748 13.7173 17.3326 14.7856 16.0593 16.0588C14.7858 17.3323 13.7175 18.6747 12.8806 19.9999C13.7175 21.3249 14.7857 22.6672 16.0591 23.9406C17.3324 25.2139 18.6748 26.2822 19.9998 27.1191C21.325 26.2822 22.6674 25.2139 23.9408 23.9404C25.2141 22.6671 26.2823 21.3249 27.1192 19.9999ZM21.4616 27.953C22.6651 27.1305 23.8623 26.1403 25.0015 25.0011C26.1405 23.862 27.1307 22.6649 27.953 21.4616C28.654 22.839 29.0754 24.1432 29.206 25.2747C29.3706 26.7017 29.0673 27.7561 28.4118 28.4117C27.7561 29.0673 26.7018 29.3705 25.2747 29.2059C24.1432 29.0754 22.839 28.654 21.4616 27.953ZM18.5381 27.9529C17.3347 27.1305 16.1375 26.1404 14.9984 25.0012C13.8593 23.8621 12.8692 22.665 12.0468 21.4616C11.3458 22.839 10.9245 24.1432 10.7939 25.2746C10.6293 26.7016 10.9326 27.756 11.5882 28.4116C12.2437 29.0672 13.2981 29.3704 14.7251 29.2058C15.8566 29.0752 17.1608 28.6539 18.5381 27.9529ZM12.0467 18.5381C12.8692 17.3346 13.8594 16.1374 14.9986 14.9982C16.1377 13.8591 17.3348 12.869 18.5381 12.0466C17.1607 11.3456 15.8565 10.9242 14.725 10.7937C13.2979 10.629 12.2436 10.9323 11.588 11.5879C10.9324 12.2435 10.6291 13.2979 10.7938 14.7249C10.9243 15.8565 11.3457 17.1607 12.0467 18.5381ZM20 18.2497C19.0335 18.2497 18.25 19.0332 18.25 19.9997C18.25 20.9662 19.0335 21.7497 20 21.7497C20.9665 21.7497 21.75 20.9662 21.75 19.9997C21.75 19.0332 20.9665 18.2497 20 18.2497ZM16.75 19.9997C16.75 18.2048 18.205 16.7497 20 16.7497C21.7949 16.7497 23.25 18.2048 23.25 19.9997C23.25 21.7946 21.7949 23.2497 20 23.2497C18.205 23.2497 16.75 21.7946 16.75 19.9997Z" fill="#4C9343"/>
</svg>
