<svg width="497" height="223" viewBox="0 0 497 223" fill="none" xmlns="http://www.w3.org/2000/svg">
<g clip-path="url(#clip0_1595_14213)">
<path d="M40.8927 203.705C42.817 204.379 44.8832 204.548 46.8921 204.195C48.901 203.842 50.7849 202.98 52.3623 201.69C56.3796 198.329 57.6407 192.791 58.6639 187.662L61.6951 172.494L55.349 176.851C50.7851 179.984 46.1187 183.217 42.9585 187.756C39.7983 192.294 38.4191 198.489 40.958 203.399" fill="#E6E6E6"/>
<path d="M41.4352 222.069C40.7929 217.405 40.1323 212.68 40.5828 207.966C40.9831 203.779 42.2641 199.689 44.8729 196.336C46.2576 194.559 47.9424 193.037 49.8518 191.838C50.3498 191.525 50.8076 192.311 50.3122 192.623C47.0087 194.704 44.4535 197.778 43.015 201.401C41.4263 205.429 41.1713 209.821 41.4472 214.1C41.6129 216.688 41.9636 219.258 42.3174 221.827C42.3458 221.943 42.3287 222.066 42.2694 222.17C42.2102 222.274 42.1133 222.352 41.9986 222.387C41.8819 222.418 41.7575 222.402 41.6524 222.343C41.5473 222.283 41.47 222.185 41.4373 222.069L41.4352 222.069Z" fill="#F2F2F2"/>
<path d="M471.561 197.77C469.511 198.489 467.31 198.669 465.169 198.293C463.029 197.917 461.022 196.998 459.341 195.624C455.061 192.042 453.719 186.144 452.628 180.68L449.398 164.52L456.159 169.161C461.022 172.499 465.994 175.944 469.36 180.779C472.727 185.614 474.196 192.214 471.492 197.445" fill="#E6E6E6"/>
<path d="M470.517 218.461C471.368 212.28 472.244 206.019 471.646 199.771C471.115 194.222 469.417 188.804 465.961 184.359C464.126 182.005 461.893 179.988 459.363 178.399C458.703 177.984 458.096 179.026 458.753 179.439C463.131 182.197 466.517 186.271 468.423 191.071C470.529 196.41 470.867 202.23 470.504 207.901C470.285 211.33 469.819 214.737 469.351 218.14C469.314 218.294 469.337 218.456 469.416 218.594C469.494 218.731 469.622 218.834 469.774 218.881C469.928 218.923 470.093 218.902 470.232 218.823C470.371 218.744 470.474 218.614 470.517 218.46L470.517 218.461Z" fill="#F2F2F2"/>
<path d="M464.392 208.543C463.512 209.876 462.304 210.96 460.882 211.692C459.46 212.424 457.874 212.778 456.275 212.721C452.165 212.526 448.74 209.668 445.657 206.953L436.536 198.924L442.572 198.636C446.913 198.429 451.366 198.235 455.501 199.571C459.635 200.907 463.448 204.117 464.204 208.384" fill="#E6E6E6"/>
<path d="M472.923 222.014C468.826 214.786 464.074 206.754 455.582 204.186C453.221 203.475 450.746 203.22 448.289 203.435C447.515 203.502 447.708 204.692 448.481 204.626C452.599 204.285 456.71 205.369 460.12 207.696C463.402 209.923 465.958 213.019 468.12 216.303C469.445 218.314 470.632 220.411 471.818 222.504C472.198 223.174 473.307 222.69 472.923 222.014Z" fill="#F2F2F2"/>
<path d="M356.628 134.565H151.243V90.7988H356.628V134.565Z" fill="white"/>
<path d="M177.857 123.8C184.016 123.8 189.009 118.823 189.009 112.682C189.009 106.542 184.016 101.564 177.857 101.564C171.698 101.564 166.705 106.542 166.705 112.682C166.705 118.823 171.698 123.8 177.857 123.8Z" fill="#4C9343"/>
<path d="M203.612 105.27C203.119 105.27 202.646 105.465 202.298 105.812C201.949 106.16 201.753 106.631 201.753 107.123C201.753 107.614 201.949 108.085 202.298 108.433C202.646 108.78 203.119 108.975 203.612 108.975H339.312C339.804 108.974 340.275 108.779 340.623 108.431C340.971 108.084 341.166 107.613 341.166 107.123C341.166 106.632 340.971 106.161 340.623 105.814C340.275 105.466 339.804 105.271 339.312 105.27H203.612Z" fill="#4C9343"/>
<path d="M203.612 116.387C203.119 116.386 202.646 116.58 202.296 116.927C201.947 117.273 201.75 117.744 201.749 118.236C201.748 118.727 201.943 119.199 202.291 119.547C202.639 119.895 203.111 120.092 203.604 120.093H289.395C289.639 120.093 289.881 120.045 290.107 119.953C290.333 119.86 290.538 119.723 290.711 119.551C290.884 119.379 291.021 119.175 291.115 118.95C291.208 118.725 291.257 118.483 291.257 118.24C291.257 117.996 291.208 117.755 291.115 117.53C291.021 117.305 290.884 117.1 290.711 116.928C290.538 116.756 290.333 116.62 290.107 116.527C289.881 116.434 289.639 116.386 289.395 116.387H203.612Z" fill="#4C9343"/>
<path d="M356.628 134.565H151.243V90.7988H356.628V134.565ZM154.379 131.439H353.493V93.925H154.379V131.439Z" fill="#CCCCCC"/>
<path d="M414.466 123.693C414.267 123.108 414.198 122.487 414.266 121.872C414.334 121.258 414.536 120.666 414.858 120.138C415.18 119.609 415.614 119.158 416.13 118.815C416.646 118.473 417.23 118.247 417.843 118.154L420.168 108.775L426.229 108.794L422.76 121.992C422.848 123.029 422.552 124.062 421.927 124.896C421.303 125.729 420.393 126.306 419.371 126.515C418.349 126.725 417.285 126.554 416.381 126.034C415.477 125.513 414.795 124.681 414.466 123.693Z" fill="#FFB7B7"/>
<path d="M424.699 117.625L415.416 116.984L419.912 90.272L417.051 60.8594L426.435 57.0234L432.693 89.6864L432.676 89.7459L424.699 117.625Z" fill="#3F3D56"/>
<path d="M352.921 114.493C352.911 113.875 353.036 113.262 353.288 112.698C353.541 112.133 353.914 111.631 354.383 111.226C354.851 110.821 355.402 110.523 355.999 110.354C356.595 110.184 357.221 110.147 357.833 110.245L362.918 102.021L368.684 103.883L361.34 115.396C361.107 116.411 360.508 117.304 359.659 117.908C358.809 118.512 357.766 118.784 356.728 118.673C355.69 118.561 354.73 118.074 354.028 117.304C353.327 116.534 352.933 115.533 352.921 114.493Z" fill="#FFB7B7"/>
<path d="M381.548 217.324H376.61L374.261 198.334L381.55 198.334L381.548 217.324Z" fill="#FFB7B7"/>
<path d="M382.808 222.095L366.885 222.094V221.894C366.885 220.255 367.538 218.683 368.7 217.525C369.863 216.366 371.439 215.715 373.083 215.715L382.808 215.715L382.808 222.095Z" fill="#2F2E41"/>
<path d="M415.999 217.324H411.061L408.711 198.334L416 198.334L415.999 217.324Z" fill="#FFB7B7"/>
<path d="M417.259 222.095L401.336 222.094V221.894C401.336 220.255 401.989 218.683 403.151 217.525C404.314 216.366 405.89 215.715 407.533 215.715L417.259 215.715L417.259 222.095Z" fill="#2F2E41"/>
<path d="M411.303 38.9998C417.782 38.9998 423.035 33.7632 423.035 27.3036C423.035 20.844 417.782 15.6074 411.303 15.6074C404.824 15.6074 399.571 20.844 399.571 27.3036C399.571 33.7632 404.824 38.9998 411.303 38.9998Z" fill="#FFB8B8"/>
<path d="M407.34 26.6639C405.588 27.395 403.624 27.4492 401.834 26.816C400.043 26.1827 398.552 24.9075 397.653 23.2387C396.754 21.5698 396.51 19.627 396.969 17.7887C397.428 15.9505 398.557 14.3485 400.137 13.2949C403.259 11.2116 407.922 11.9011 410.949 14.3173C412.99 13.3918 415.274 13.1377 417.469 13.5919C419.664 14.0461 421.658 15.185 423.161 16.8437C426.083 20.2139 426.402 25.5634 424.273 29.4922C423.341 31.5403 422.928 33.7849 423.069 36.0293C423.21 38.2737 423.901 40.4493 425.082 42.3656C424.165 42.3283 422.149 42.1591 419.625 41.9421C418.895 41.8793 418.579 39.7408 417.778 39.672C417.072 39.6114 415.887 41.6208 415.147 41.5585C409.667 41.0968 403.532 40.6278 400.751 40.7196C402.846 35.8295 404.942 30.9395 407.34 26.6639Z" fill="#2F2E41"/>
<path d="M420.3 109.703C420.3 109.703 424.112 113.622 421.784 133.859L420.176 176.83L417.33 214.879L408.174 214.272L400.132 126.697L388.873 158.744L382.81 211.723L374.026 211.116L372.525 158.431L376.376 117.715L420.3 109.703Z" fill="#2F2E41"/>
<path d="M382.564 120.165C377.879 120.165 375.993 119.604 375.855 119.56L375.637 119.492L375.675 119.268C375.707 119.084 378.854 100.79 383.172 91.186L386.209 52.2364C386.296 51.0792 386.773 49.9854 387.564 49.1334C388.354 48.2814 389.41 47.7212 390.561 47.5443L398.285 46.3354L403.009 42.1875L414.328 42.8116L415.326 47.585C416.68 47.9623 425.614 50.6919 426.498 57.2281L426.509 57.31L426.471 57.3831L410.104 88.772C411.488 90.1328 422.417 101.327 423.159 115.637L423.177 115.981L422.84 115.904C422.809 115.898 419.311 115.235 400.918 118.335C392.412 119.768 386.5 120.165 382.564 120.165Z" fill="#3F3D56"/>
<path d="M364.42 114.305L357.75 109.183L372.639 79.4839L386.487 50.376C386.68 49.9693 386.994 49.6313 387.386 49.4074C387.777 49.1835 388.228 49.0845 388.678 49.1236C389.128 49.1627 389.555 49.338 389.902 49.6261C390.249 49.9142 390.499 50.3013 390.619 50.7352L394.047 63.1326L383.328 90.9358L364.42 114.305Z" fill="#3F3D56"/>
<path d="M496.477 222.999H297.364C297.225 222.999 297.092 222.944 296.994 222.846C296.896 222.749 296.841 222.616 296.841 222.478C296.841 222.34 296.896 222.207 296.994 222.11C297.092 222.012 297.225 221.957 297.364 221.957H496.477C496.616 221.957 496.749 222.012 496.847 222.11C496.945 222.207 497 222.34 497 222.478C497 222.616 496.945 222.749 496.847 222.846C496.749 222.944 496.616 222.999 496.477 222.999Z" fill="#CBCBCB"/>
<path d="M266.97 65.6492H238.749V37.5137H252.86V38.5557H239.794V64.6071H265.925V51.5814H266.97V65.6492Z" fill="#3F3D56"/>
<path d="M252.33 57.3386L245.474 49.4904L246.657 48.464L252.344 54.9742L267.952 37.5156L269.122 38.5556L252.33 57.3386Z" fill="#4C9343"/>
<path d="M91.8235 35.0332L92.4833 31.7441C92.4833 31.7441 102.188 28.4551 103.274 35.0332H91.8235Z" fill="#E6E6E6"/>
<path d="M110.449 216.134H116.811L119.838 191.668H110.448L110.449 216.134Z" fill="#9F616A"/>
<path d="M108.826 214.063L121.356 214.062H121.356C123.474 214.063 125.505 214.901 127.002 216.394C128.5 217.887 129.341 219.912 129.341 222.023V222.282L108.826 222.283L108.826 214.063Z" fill="#2F2E41"/>
<path d="M79.7782 216.134H86.1404L89.1673 191.668H79.7771L79.7782 216.134Z" fill="#9F616A"/>
<path d="M78.155 214.063L90.6849 214.062H90.6854C92.8031 214.063 94.834 214.901 96.3315 216.394C97.8289 217.887 98.6703 219.912 98.6704 222.023V222.282L78.1554 222.283L78.155 214.063Z" fill="#2F2E41"/>
<path d="M82.5862 48.8475L75.3283 48.1895L70.71 69.897L71.3695 89.6315L78.6275 115.944L88.5246 110.023L83.2463 83.0535L82.5862 48.8475Z" fill="#3F3D56"/>
<path d="M77.9923 113.643L79.6171 127.457L81.1426 159.69L77.6375 207.722L90.1738 207.052L96.318 157.058L100.071 134.035L105.349 160.347L108.648 209.683L121.515 208.655V160.174L121.844 124.826L117.226 111.012L77.9923 113.643Z" fill="#2F2E41"/>
<path d="M105.02 35.6914C105.02 35.6914 100.401 29.1133 91.8236 33.718L87.8648 38.9804L75.3285 48.1898L77.9677 79.1068L74.6687 117.918L121.515 117.26L113.597 78.449V37.007L105.02 35.6914Z" fill="#3F3D56"/>
<path opacity="0.25" d="M79.6171 59.1094L75.834 104.207L80.607 79.7655L79.6171 59.1094Z" fill="black"/>
<path d="M158.365 96.9198C157.691 97.1479 156.976 97.2261 156.268 97.1487C155.561 97.0713 154.88 96.8403 154.272 96.4719C153.664 96.1035 153.144 95.6066 152.75 95.0164C152.355 94.4262 152.095 93.7569 151.988 93.0557L141.193 90.3958L141.214 83.4609L156.407 87.4308C157.6 87.3296 158.789 87.6684 159.749 88.3831C160.709 89.0977 161.372 90.1385 161.613 91.3081C161.855 92.4778 161.657 93.6951 161.059 94.7294C160.46 95.7636 159.501 96.543 158.365 96.9198Z" fill="#9F616A"/>
<path d="M147.076 83.3779L145.261 93.7461L149.811 94.5379L151.626 84.1697L147.076 83.3779Z" fill="#E6E6E6"/>
<path d="M97.6769 28.0926C104.994 28.0926 110.926 22.1785 110.926 14.8832C110.926 7.58787 104.994 1.67383 97.6769 1.67383C90.3595 1.67383 84.4275 7.58787 84.4275 14.8832C84.4275 22.1785 90.3595 28.0926 97.6769 28.0926Z" fill="#9F616A"/>
<path d="M98.6665 26.5365C95.425 27.3123 92.0099 26.8595 89.0845 25.2658C86.1592 23.6721 83.9323 21.0513 82.8363 17.9125C81.7404 14.7736 81.8537 11.3407 83.1542 8.28051C84.4547 5.22027 86.8495 2.75111 89.8737 1.35256C92.2025 0.316309 94.7493 -0.139346 97.2942 0.0249276C101.257 0.23263 105.108 1.69276 109.075 1.58517L109.65 2.50651L111.816 1.98262L112.281 3.69765L112.851 3.67796C113.874 5.57207 112.229 8.28381 110.071 8.26086C109.223 8.16335 108.387 7.98169 107.575 7.71858C106.739 7.54016 105.756 7.58463 105.18 8.21352C104.431 9.03081 104.757 10.3062 104.913 11.4019C105.069 12.4976 104.68 13.9735 103.57 14.0093C103.003 14.0276 102.464 13.6224 101.907 13.7289C101.259 13.853 100.931 14.6339 101.025 15.2855C101.186 15.925 101.448 16.5347 101.802 17.0918C102.552 18.7226 102.671 20.5722 102.137 22.2854C101.602 23.9986 100.452 25.4546 98.9064 26.3737" fill="#2F2E41"/>
<path d="M110.448 39.5495L113.597 37.0079C113.597 37.0079 119.953 36.5673 119.838 43.2849L130.008 75.0006L149.518 81.891L146.889 95.4328L119.285 84.9488L105.264 61.7796L110.448 39.5495Z" fill="#3F3D56"/>
<path d="M199.636 222.999H0.522608C0.384003 222.999 0.251076 222.944 0.153068 222.846C0.0550599 222.749 0 222.616 0 222.478C0 222.34 0.0550599 222.207 0.153068 222.11C0.251076 222.012 0.384003 221.957 0.522608 221.957H199.636C199.775 221.957 199.908 222.012 200.006 222.11C200.104 222.207 200.159 222.34 200.159 222.478C200.159 222.616 200.104 222.749 200.006 222.846C199.908 222.944 199.775 222.999 199.636 222.999Z" fill="#CBCBCB"/>
</g>
<defs>
<clipPath id="clip0_1595_14213">
<rect width="497" height="223" fill="white"/>
</clipPath>
</defs>
</svg>
