<svg width="250" height="269" viewBox="0 0 250 269" fill="none" xmlns="http://www.w3.org/2000/svg">
<g clip-path="url(#clip0_1595_14131)">
<path d="M83.0395 148.348C82.0993 147.426 80.9476 146.75 79.6855 146.377L70.4388 136.289L65.563 140.967L75.4732 150.7C75.8946 151.941 76.6178 153.058 77.5778 153.951C79.9499 156.22 83.0936 156.803 84.6006 155.254C86.1076 153.704 85.4163 150.614 83.0486 148.351H83.0398L83.0395 148.348Z" fill="#ED9DA0"/>
<path d="M79.186 143.806L74.2756 149.984L48.8934 130.755L48.8715 130.711L34.0389 103.009C33.4264 101.865 33.0548 100.607 32.9469 99.3129C32.8391 98.0191 32.9973 96.717 33.4118 95.4868C33.8263 94.2566 34.4884 93.1245 35.357 92.1603C36.2257 91.1961 37.2826 90.4203 38.4625 89.8808C39.6423 89.3413 40.9202 89.0495 42.2171 89.0234C43.514 88.9973 44.8025 89.2376 46.0031 89.7292C47.2036 90.2209 48.2908 90.9536 49.1974 91.8821C50.1041 92.8106 50.811 93.9152 51.2745 95.1278L60.8981 120.338L79.1866 143.797V143.806H79.186Z" fill="#4C9343"/>
<path d="M37.3889 79.7305H47.7359V96.1598L36.3274 92.4079L37.3889 79.7305Z" fill="#ED9DA0"/>
<path d="M57.6894 72.9013C57.689 69.8845 56.4913 66.9914 54.3597 64.8584C52.2281 62.7254 49.3372 61.5272 46.3229 61.5273C43.3086 61.5275 40.4178 62.7261 38.2865 64.8593C36.1551 66.9926 34.9578 69.8858 34.9578 72.9026C34.9578 75.9194 36.1551 78.8126 38.2865 80.9459C40.4178 83.0791 43.3086 84.2777 46.3229 84.2779C49.3372 84.278 52.2281 83.0798 54.3597 80.9468C56.4913 78.8138 57.689 75.9207 57.6894 72.9039V72.9013Z" fill="#ED9DA0"/>
<path d="M38.2831 80.1739L37.1745 82.2804L32.2806 72.9722C29.3344 63.9413 39.6245 58.7545 39.6245 58.7545C42.9839 54.7966 49.7309 59.4269 49.7309 59.4269C59.4643 57.2624 54.7646 65.4728 54.7646 65.4728C54.7646 65.4728 51.4455 65.5461 51.4455 68.2332C51.4455 70.9202 47.8285 70.7346 47.8285 70.7346L44.9945 75.6975L43.4293 73.7939C37.6109 71.3277 38.2818 80.1743 38.2818 80.1743L38.2831 80.1739Z" fill="#090814"/>
<path d="M42.378 248.072H33.1968V261.109H42.378V248.072Z" fill="#ED9DA0"/>
<path d="M51.3185 269.001C47.2893 269.001 41.406 268.58 41.361 268.575C39.7881 268.716 31.9298 269.334 31.5395 267.535C31.3331 266.326 31.4173 265.085 31.785 263.915C32.5436 256.398 32.8241 256.311 32.9921 256.262C33.2608 256.183 34.0399 256.555 35.307 257.372L35.386 257.425L35.4034 257.517C35.4253 257.631 35.9866 260.391 38.6479 259.969C40.4721 259.68 41.062 259.276 41.2521 259.079C41.0562 258.993 40.8888 258.853 40.7697 258.675C40.669 258.498 40.6079 258.301 40.5905 258.098C40.5731 257.895 40.5999 257.69 40.6689 257.499C41.0394 256.399 41.5118 255.337 42.0799 254.326L42.1984 254.115L52.6314 261.161L59.0767 263.005C59.3159 263.072 59.5369 263.192 59.7231 263.357C59.9092 263.522 60.0558 263.727 60.1517 263.956C60.2847 264.274 60.3156 264.626 60.2402 264.963C60.1648 265.299 59.9868 265.604 59.7307 265.834C58.5603 266.887 56.2316 268.69 53.7944 268.915C53.1453 268.976 52.286 268.998 51.3215 268.998L51.3185 269.001Z" fill="#090814"/>
<path d="M5.45261 238.581L12.5305 244.434L20.8275 234.383L13.7496 228.53L5.45261 238.581Z" fill="#ED9DA0"/>
<path d="M14.3822 256.202C11.2778 253.63 7.01167 249.553 6.9811 249.523C5.679 248.632 -0.770687 244.095 0.0752063 242.458C0.684064 241.393 1.53977 240.49 2.57022 239.825C7.94121 234.511 8.20863 234.626 8.37089 234.695C8.62956 234.805 8.99271 235.586 9.44958 237.025L9.47579 237.113L9.43177 237.196C9.37029 237.302 8.04637 239.789 10.3657 241.158C11.957 242.098 12.6675 242.163 12.9393 242.133C12.8423 241.941 12.8026 241.725 12.8251 241.511C12.8608 241.311 12.9392 241.12 13.0552 240.953C13.1712 240.786 13.3218 240.645 13.497 240.541C14.4831 239.931 15.524 239.414 16.6061 238.997L16.8295 238.909L20.3807 250.994L24.1734 256.528C24.3139 256.733 24.4065 256.968 24.4445 257.214C24.4825 257.46 24.4648 257.711 24.3928 257.949C24.2922 258.279 24.0919 258.57 23.8195 258.781C23.5471 258.993 23.216 259.114 22.8717 259.13C21.3022 259.197 18.3597 259.099 16.3387 257.718C15.8039 257.348 15.1293 256.818 14.3832 256.205L14.3822 256.202Z" fill="#090814"/>
<path d="M57.5572 147.535L43.5617 251.723H33.064L26.0674 147.535H57.5602H57.5572Z" fill="#090814"/>
<path d="M30.4433 204.445L9.54224 231.586L18.4866 238.981L54.3564 204.837L57.5616 147.535L51.1472 153.275L30.4433 204.445Z" fill="#090814"/>
<path d="M51.1472 86.2464L57.5612 147.537H26.0684L23.6261 127.645C22.1219 115.36 24.6257 102.917 30.7641 92.1722L35.5959 83.7207L51.1478 86.2467L51.1472 86.2464Z" fill="#4C9343"/>
<path d="M53.9709 164.952C53.4978 163.723 52.7299 162.629 51.7349 161.767L47.502 148.742L41.1226 150.975L46.0988 163.943C45.9645 165.248 46.1588 166.567 46.6642 167.778C47.8786 170.823 50.501 172.662 52.5132 171.88C54.5255 171.097 55.1745 167.996 53.9601 164.951H53.9689L53.9709 164.952Z" fill="#ED9DA0"/>
<path d="M52.3351 159.191L45.3069 162.772L30.1846 134.735V134.687L28.173 103.325C28.091 102.029 28.2753 100.73 28.7143 99.5086C29.1534 98.2869 29.838 97.1681 30.7259 96.2215C31.6138 95.2748 32.6861 94.5203 33.8766 94.0045C35.0672 93.4888 36.3507 93.2227 37.648 93.2227C38.9453 93.2227 40.2288 93.4888 41.4194 94.0045C42.61 94.5203 43.6823 95.2748 44.5701 96.2215C45.458 97.1681 46.1426 98.2869 46.5817 99.5086C47.0208 100.73 47.205 102.029 47.123 103.325L45.4262 130.256L52.3364 159.196L52.3351 159.191Z" fill="#4C9343"/>
<path d="M175.415 41.2131C181.751 41.1963 188.029 42.4309 193.888 44.8463C199.747 47.2616 205.072 50.8101 209.559 55.2885C214.045 59.7669 217.605 65.0872 220.034 70.9447C222.462 76.8022 223.713 83.0817 223.713 89.4235C223.713 95.7654 222.462 102.045 220.034 107.902C217.605 113.76 214.045 119.08 209.559 123.559C205.072 128.037 199.747 131.585 193.888 134.001C188.029 136.416 181.751 137.651 175.415 137.634C148.811 137.634 111.992 111.235 127.244 89.4234C142.496 67.6115 148.811 41.2131 175.415 41.2131Z" fill="#F2F2F2"/>
<path d="M239.887 43.5078C239.679 43.508 239.48 43.5907 239.333 43.7377C239.187 43.8847 239.104 44.084 239.104 44.2919V69.3771C239.108 69.5822 239.192 69.7775 239.339 69.921C239.485 70.0646 239.682 70.1449 239.887 70.1449C240.092 70.1449 240.289 70.0646 240.435 69.921C240.582 69.7775 240.666 69.5822 240.67 69.3771V44.2919C240.67 44.084 240.588 43.8848 240.441 43.7378C240.294 43.5908 240.095 43.5081 239.887 43.5078Z" fill="#3F3D56"/>
<path d="M108.299 24.6934C108.092 24.6935 107.893 24.7762 107.746 24.9232C107.599 25.0702 107.516 25.2695 107.516 25.4774V31.7486C107.514 31.8529 107.533 31.9566 107.571 32.0536C107.609 32.1506 107.667 32.2389 107.74 32.3134C107.813 32.388 107.9 32.4472 107.996 32.4876C108.092 32.528 108.195 32.5489 108.299 32.5489C108.404 32.5489 108.507 32.528 108.603 32.4876C108.699 32.4472 108.786 32.388 108.859 32.3134C108.932 32.2389 108.989 32.1506 109.028 32.0536C109.066 31.9566 109.085 31.8529 109.083 31.7486V25.4771C109.082 25.2693 109 25.0701 108.853 24.9232C108.706 24.7763 108.507 24.6936 108.299 24.6934Z" fill="#3F3D56"/>
<path d="M108.299 35.7266C108.092 35.7267 107.893 35.8094 107.746 35.9564C107.599 36.1034 107.516 36.3027 107.516 36.5106V48.6612C107.514 48.7655 107.533 48.8692 107.571 48.9662C107.609 49.0632 107.667 49.1516 107.74 49.2261C107.813 49.3006 107.9 49.3598 107.996 49.4003C108.092 49.4407 108.195 49.4615 108.299 49.4615C108.404 49.4615 108.507 49.4407 108.603 49.4003C108.699 49.3598 108.786 49.3006 108.859 49.2261C108.932 49.1516 108.989 49.0632 109.028 48.9662C109.066 48.8692 109.085 48.7655 109.083 48.6612V36.5103C109.082 36.3025 109 36.1033 108.853 35.9564C108.706 35.8095 108.507 35.7268 108.299 35.7266Z" fill="#3F3D56"/>
<path d="M108.3 52.582C108.092 52.5822 107.893 52.6649 107.746 52.8119C107.599 52.9589 107.516 53.1582 107.516 53.3661V65.5167C107.52 65.7218 107.605 65.917 107.751 66.0606C107.898 66.2041 108.094 66.2845 108.299 66.2845C108.504 66.2845 108.701 66.2041 108.848 66.0606C108.994 65.917 109.078 65.7218 109.083 65.5167V53.3658C109.082 53.158 109 52.9588 108.853 52.8119C108.706 52.665 108.507 52.5823 108.3 52.582Z" fill="#3F3D56"/>
<path d="M178.548 0.000336034C178.34 0.000514099 178.141 0.0831778 177.994 0.230179C177.847 0.377181 177.764 0.576506 177.764 0.784398V12.9347C177.768 13.1397 177.853 13.335 177.999 13.4785C178.146 13.6221 178.342 13.7025 178.547 13.7025C178.752 13.7025 178.949 13.6221 179.096 13.4785C179.242 13.335 179.326 13.1397 179.331 12.9347V0.784062C179.33 0.57617 179.248 0.376845 179.101 0.229843C178.954 0.0828418 178.755 0.000178065 178.547 0L178.548 0.000336034Z" fill="#3F3D56"/>
<path d="M154.353 86.175H127.243V85.3909H154.353C155.485 85.3896 156.571 84.9387 157.371 84.1374C158.172 83.336 158.622 82.2495 158.624 81.1162V62.7715H159.408V81.1162C159.407 82.4574 158.874 83.7432 157.927 84.6916C156.979 85.64 155.694 86.1734 154.354 86.175H154.353Z" fill="#4C9343"/>
<path d="M206.079 125.941H144.423V126.725H206.079V125.941Z" fill="#4C9343"/>
<path d="M245.198 80.9336H212.266C211.411 80.9326 210.592 80.5924 209.988 79.9877C209.384 79.383 209.044 78.5631 209.043 77.7079V45.1495C209.044 44.2943 209.384 43.4744 209.988 42.8697C210.592 42.265 211.411 41.9248 212.266 41.9238H245.198C246.053 41.9248 246.872 42.265 247.476 42.8697C248.081 43.4744 248.42 44.2943 248.421 45.1495V77.7075C248.421 78.5628 248.081 79.3828 247.476 79.9876C246.872 80.5924 246.053 80.9326 245.198 80.9336Z" fill="#090814"/>
<path d="M218.398 42.8848C216.172 42.8848 214.036 43.7701 212.462 45.3459C210.887 46.9217 210.003 49.059 210.003 51.2875V77.017C210.003 77.4051 210.079 77.7894 210.227 78.1479C210.376 78.5065 210.593 78.8323 210.868 79.1067C211.142 79.3811 211.467 79.5988 211.826 79.7474C212.184 79.8959 212.568 79.9723 212.956 79.9723H233.093C236.904 79.9723 240.558 78.4573 243.253 75.7606C245.947 73.0639 247.461 69.4063 247.461 65.5926V45.8401C247.461 45.452 247.384 45.0677 247.236 44.7092C247.088 44.3506 246.87 44.0248 246.596 43.7504C246.322 43.4759 245.996 43.2582 245.638 43.1097C245.28 42.9612 244.896 42.8848 244.508 42.8848H218.398Z" fill="white"/>
<path d="M237.552 52.3457H219.842C219.762 52.3457 219.682 52.3298 219.608 52.299C219.534 52.2682 219.466 52.223 219.409 52.166C219.352 52.1091 219.307 52.0415 219.276 51.9671C219.246 51.8927 219.23 51.8129 219.23 51.7324C219.23 51.6519 219.246 51.5721 219.276 51.4977C219.307 51.4233 219.352 51.3557 219.409 51.2988C219.466 51.2418 219.534 51.1966 219.608 51.1658C219.682 51.135 219.762 51.1191 219.842 51.1191H237.552C237.715 51.1191 237.871 51.1838 237.985 51.2988C238.1 51.4138 238.165 51.5698 238.165 51.7324C238.165 51.8951 238.1 52.051 237.985 52.166C237.871 52.2811 237.715 52.3457 237.552 52.3457Z" fill="#D6D6E3"/>
<path d="M237.552 65.4218H219.842C219.68 65.4218 219.524 65.3572 219.409 65.2422C219.294 65.1272 219.23 64.9712 219.23 64.8086C219.23 64.6459 219.294 64.4899 219.409 64.3749C219.524 64.2599 219.68 64.1953 219.842 64.1953H237.552C237.715 64.1953 237.871 64.2599 237.985 64.3749C238.1 64.4899 238.165 64.6459 238.165 64.8086C238.165 64.9712 238.1 65.1272 237.985 65.2422C237.871 65.3572 237.715 65.4218 237.552 65.4218Z" fill="#D6D6E3"/>
<path d="M244.744 58.8886H212.651C212.489 58.8886 212.333 58.824 212.218 58.709C212.103 58.594 212.038 58.438 212.038 58.2754C212.038 58.1127 212.103 57.9567 212.218 57.8417C212.333 57.7267 212.489 57.6621 212.651 57.6621H244.744C244.906 57.6621 245.062 57.7267 245.177 57.8417C245.292 57.9567 245.357 58.1127 245.357 58.2754C245.357 58.438 245.292 58.594 245.177 58.709C245.062 58.824 244.906 58.8886 244.744 58.8886Z" fill="#D6D6E3"/>
<path d="M245.072 70.7402H233.478C233.315 70.7402 233.16 70.6756 233.045 70.5606C232.93 70.4456 232.865 70.2896 232.865 70.1269C232.865 69.9643 232.93 69.8083 233.045 69.6933C233.16 69.5783 233.315 69.5137 233.478 69.5137H245.072C245.234 69.5137 245.39 69.5783 245.505 69.6933C245.62 69.8083 245.684 69.9643 245.684 70.1269C245.684 70.2896 245.62 70.4456 245.505 70.5606C245.39 70.6756 245.234 70.7402 245.072 70.7402Z" fill="#D6D6E3"/>
<path d="M176.024 145.803H149.873C149.194 145.802 148.544 145.532 148.064 145.052C147.584 144.571 147.314 143.92 147.313 143.241V117.388C147.314 116.709 147.584 116.057 148.064 115.577C148.544 115.097 149.194 114.827 149.873 114.826H176.024C176.702 114.827 177.353 115.097 177.833 115.577C178.313 116.057 178.583 116.709 178.583 117.388V143.241C178.583 143.92 178.313 144.572 177.833 145.052C177.353 145.532 176.702 145.802 176.024 145.803V145.803Z" fill="#090814"/>
<path d="M154.743 115.59C152.975 115.59 151.279 116.293 150.029 117.544C148.778 118.796 148.076 120.493 148.076 122.262V142.693C148.076 143.002 148.137 143.307 148.254 143.591C148.372 143.876 148.545 144.135 148.763 144.353C148.98 144.571 149.239 144.744 149.523 144.862C149.808 144.979 150.113 145.04 150.421 145.04H166.411C169.437 145.04 172.339 143.837 174.479 141.696C176.619 139.554 177.821 136.65 177.821 133.622V117.937C177.821 117.315 177.574 116.718 177.134 116.278C176.694 115.837 176.098 115.59 175.476 115.59H154.743V115.59Z" fill="white"/>
<path d="M169.952 123.102H155.89C155.761 123.102 155.637 123.051 155.545 122.959C155.454 122.868 155.403 122.744 155.403 122.614C155.403 122.485 155.454 122.361 155.545 122.27C155.637 122.178 155.761 122.127 155.89 122.127H169.952C170.082 122.127 170.205 122.178 170.297 122.27C170.388 122.361 170.44 122.485 170.44 122.614C170.44 122.744 170.388 122.868 170.297 122.959C170.205 123.051 170.082 123.102 169.952 123.102Z" fill="#D6D6E3"/>
<path d="M169.952 133.487H155.89C155.761 133.487 155.637 133.435 155.545 133.344C155.454 133.253 155.403 133.129 155.403 132.999C155.403 132.87 155.454 132.746 155.545 132.655C155.637 132.563 155.761 132.512 155.89 132.512H169.952C170.082 132.512 170.205 132.563 170.297 132.655C170.388 132.746 170.44 132.87 170.44 132.999C170.44 133.129 170.388 133.253 170.297 133.344C170.205 133.435 170.082 133.487 169.952 133.487Z" fill="#D6D6E3"/>
<path d="M175.663 128.297H150.179C150.05 128.297 149.926 128.246 149.835 128.155C149.743 128.063 149.692 127.939 149.692 127.81C149.692 127.68 149.743 127.556 149.835 127.465C149.926 127.374 150.05 127.322 150.179 127.322H175.663C175.792 127.322 175.916 127.374 176.007 127.465C176.099 127.556 176.15 127.68 176.15 127.81C176.15 127.939 176.099 128.063 176.007 128.155C175.916 128.246 175.792 128.297 175.663 128.297Z" fill="#D6D6E3"/>
<path d="M175.923 137.707H166.719C166.589 137.707 166.465 137.656 166.374 137.565C166.283 137.473 166.231 137.349 166.231 137.22C166.231 137.091 166.283 136.967 166.374 136.875C166.465 136.784 166.589 136.732 166.719 136.732H175.923C176.052 136.732 176.176 136.784 176.268 136.875C176.359 136.967 176.41 137.091 176.41 137.22C176.41 137.349 176.359 137.473 176.268 137.565C176.176 137.656 176.052 137.707 175.923 137.707Z" fill="#D6D6E3"/>
<path d="M157.746 62.5743H138.407C137.905 62.5736 137.424 62.3739 137.069 62.0188C136.714 61.6636 136.515 61.1822 136.514 60.68V41.5603C136.515 41.0581 136.714 40.5766 137.069 40.2215C137.424 39.8664 137.905 39.6666 138.407 39.666H157.746C158.248 39.6666 158.729 39.8664 159.084 40.2215C159.439 40.5766 159.638 41.0581 159.639 41.5603V60.68C159.638 61.1822 159.439 61.6636 159.084 62.0188C158.729 62.3739 158.248 62.5736 157.746 62.5743Z" fill="#090814"/>
<path d="M142.008 40.2305C141.36 40.2305 140.719 40.3582 140.121 40.6062C139.522 40.8543 138.979 41.2179 138.521 41.6763C138.063 42.1346 137.7 42.6788 137.452 43.2777C137.204 43.8765 137.077 44.5183 137.077 45.1665V60.2758C137.077 60.5037 137.122 60.7294 137.209 60.9399C137.296 61.1505 137.424 61.3418 137.585 61.503C137.746 61.6642 137.937 61.792 138.148 61.8792C138.358 61.9664 138.584 62.0113 138.811 62.0113H150.636C152.874 62.0113 155.02 61.1217 156.602 59.538C158.185 57.9544 159.074 55.8065 159.074 53.5669V41.9674C159.074 41.5071 158.891 41.0656 158.566 40.7401C158.241 40.4147 157.8 40.2318 157.34 40.2318H142.008V40.2305Z" fill="white"/>
<path d="M153.256 45.7866H142.856C142.76 45.7866 142.669 45.7487 142.601 45.6811C142.534 45.6136 142.496 45.522 142.496 45.4265C142.496 45.331 142.534 45.2394 142.601 45.1719C142.669 45.1043 142.76 45.0664 142.856 45.0664H153.256C153.351 45.0664 153.443 45.1043 153.51 45.1719C153.578 45.2394 153.615 45.331 153.615 45.4265C153.615 45.522 153.578 45.6136 153.51 45.6811C153.443 45.7487 153.351 45.7866 153.256 45.7866Z" fill="#D6D6E3"/>
<path d="M153.256 53.4663H142.856C142.808 53.4663 142.762 53.457 142.718 53.4389C142.674 53.4208 142.635 53.3942 142.601 53.3608C142.568 53.3274 142.541 53.2877 142.523 53.244C142.505 53.2003 142.496 53.1535 142.496 53.1062C142.496 53.0589 142.505 53.0121 142.523 52.9684C142.541 52.9247 142.568 52.885 142.601 52.8516C142.635 52.8181 142.674 52.7916 142.718 52.7735C142.762 52.7554 142.808 52.7461 142.856 52.7461H153.256C153.351 52.7461 153.443 52.784 153.51 52.8516C153.578 52.9191 153.615 53.0107 153.615 53.1062C153.615 53.2017 153.578 53.2933 153.51 53.3608C153.443 53.4283 153.351 53.4663 153.256 53.4663Z" fill="#D6D6E3"/>
<path d="M157.479 49.6284H138.633C138.538 49.6284 138.446 49.5904 138.379 49.5229C138.311 49.4554 138.273 49.3638 138.273 49.2683C138.273 49.1728 138.311 49.0812 138.379 49.0137C138.446 48.9461 138.538 48.9082 138.633 48.9082H157.479C157.575 48.9082 157.666 48.9461 157.734 49.0137C157.801 49.0812 157.839 49.1728 157.839 49.2683C157.839 49.3638 157.801 49.4554 157.734 49.5229C157.666 49.5904 157.575 49.6284 157.479 49.6284Z" fill="#D6D6E3"/>
<path d="M157.672 56.5893H150.863C150.768 56.5893 150.677 56.5514 150.609 56.4839C150.542 56.4163 150.504 56.3247 150.504 56.2292C150.504 56.1337 150.542 56.0421 150.609 55.9746C150.677 55.9071 150.768 55.8691 150.863 55.8691H157.672C157.767 55.8691 157.859 55.9071 157.926 55.9746C157.994 56.0421 158.032 56.1337 158.032 56.2292C158.032 56.3247 157.994 56.4163 157.926 56.4839C157.859 56.5514 157.767 56.5893 157.672 56.5893Z" fill="#D6D6E3"/>
<path d="M209.976 84.6584C213.004 84.6584 215.458 82.2016 215.458 79.171C215.458 76.1404 213.004 73.6836 209.976 73.6836C206.947 73.6836 204.493 76.1404 204.493 79.171C204.493 82.2016 206.947 84.6584 209.976 84.6584Z" fill="#4C9343"/>
<path d="M158.967 66.6908C161.13 66.6908 162.883 64.9359 162.883 62.7712C162.883 60.6064 161.13 58.8516 158.967 58.8516C156.804 58.8516 155.05 60.6064 155.05 62.7712C155.05 64.9359 156.804 66.6908 158.967 66.6908Z" fill="#4C9343"/>
<path d="M177.764 120.124C180.359 120.124 182.463 118.018 182.463 115.42C182.463 112.823 180.359 110.717 177.764 110.717C175.168 110.717 173.064 112.823 173.064 115.42C173.064 118.018 175.168 120.124 177.764 120.124Z" fill="#4C9343"/>
<path d="M186.224 11.7066C188.919 11.7066 191.105 9.56565 191.105 6.92461C191.105 4.28357 188.919 2.14258 186.224 2.14258C183.528 2.14258 181.343 4.28357 181.343 6.92461C181.343 9.56565 183.528 11.7066 186.224 11.7066Z" fill="#D6D6E3"/>
<path d="M225.353 5.28965H199.08C198.647 5.28965 198.231 5.11729 197.924 4.81047C197.618 4.50365 197.446 4.08752 197.446 3.65362C197.446 3.21971 197.618 2.80358 197.924 2.49676C198.231 2.18995 198.647 2.01758 199.08 2.01758H225.353C225.786 2.01758 226.202 2.18995 226.509 2.49676C226.815 2.80358 226.987 3.21971 226.987 3.65362C226.987 4.08752 226.815 4.50365 226.509 4.81047C226.202 5.11729 225.786 5.28965 225.353 5.28965Z" fill="#D6D6E3"/>
<path d="M245.856 10.8268H199.08C198.647 10.8268 198.231 10.6544 197.924 10.3476C197.618 10.0408 197.446 9.62463 197.446 9.19073C197.446 8.75682 197.618 8.34069 197.924 8.03387C198.231 7.72705 198.647 7.55469 199.08 7.55469H245.856C246.29 7.55469 246.705 7.72705 247.012 8.03387C247.318 8.34069 247.491 8.75682 247.491 9.19073C247.491 9.62463 247.318 10.0408 247.012 10.3476C246.705 10.6544 246.29 10.8268 245.856 10.8268Z" fill="#D6D6E3"/>
<path d="M115.575 31.807C117.319 31.807 118.734 30.4213 118.734 28.7121C118.734 27.0028 117.319 25.6172 115.575 25.6172C113.83 25.6172 112.416 27.0028 112.416 28.7121C112.416 30.4213 113.83 31.807 115.575 31.807Z" fill="#4C9343"/>
<path d="M140.899 27.6533H123.895C123.615 27.6533 123.346 27.5417 123.147 27.3431C122.949 27.1445 122.837 26.8751 122.837 26.5942C122.837 26.3134 122.949 26.044 123.147 25.8454C123.346 25.6467 123.615 25.5352 123.895 25.5352H140.899C141.179 25.5352 141.448 25.6467 141.647 25.8454C141.845 26.044 141.957 26.3134 141.957 26.5942C141.957 26.8751 141.845 27.1445 141.647 27.3431C141.448 27.5417 141.179 27.6533 140.899 27.6533Z" fill="#4C9343"/>
<path d="M154.168 31.2373H123.895C123.615 31.2373 123.346 31.1257 123.147 30.9271C122.949 30.7285 122.837 30.4591 122.837 30.1782C122.837 29.8973 122.949 29.628 123.147 29.4293C123.346 29.2307 123.615 29.1191 123.895 29.1191H154.168C154.448 29.1191 154.718 29.2307 154.916 29.4293C155.115 29.628 155.226 29.8973 155.226 30.1782C155.226 30.4591 155.115 30.7285 154.916 30.9271C154.718 31.1257 154.448 31.2373 154.168 31.2373Z" fill="#4C9343"/>
<path d="M210.35 141.948C212.094 141.948 213.508 140.562 213.508 138.853C213.508 137.143 212.094 135.758 210.35 135.758C208.605 135.758 207.191 137.143 207.191 138.853C207.191 140.562 208.605 141.948 210.35 141.948Z" fill="#4C9343"/>
<path d="M235.673 137.794H218.67C218.389 137.794 218.12 137.682 217.922 137.484C217.723 137.285 217.612 137.016 217.612 136.735C217.612 136.454 217.723 136.185 217.922 135.986C218.12 135.787 218.389 135.676 218.67 135.676H235.673C235.954 135.676 236.223 135.787 236.421 135.986C236.62 136.185 236.731 136.454 236.731 136.735C236.731 137.016 236.62 137.285 236.421 137.484C236.223 137.682 235.954 137.794 235.673 137.794Z" fill="#4C9343"/>
<path d="M248.942 141.378H218.67C218.389 141.378 218.12 141.266 217.922 141.068C217.723 140.869 217.612 140.6 217.612 140.319C217.612 140.038 217.723 139.769 217.922 139.57C218.12 139.371 218.389 139.26 218.67 139.26H248.942C249.223 139.26 249.492 139.371 249.691 139.57C249.889 139.769 250.001 140.038 250.001 140.319C250.001 140.6 249.889 140.869 249.691 141.068C249.492 141.266 249.223 141.378 248.942 141.378Z" fill="#4C9343"/>
<path d="M172.379 41.9355H171.596V79.1713H172.379V41.9355Z" fill="#090814"/>
<path d="M171.988 81.524C173.286 81.524 174.338 80.471 174.338 79.1722C174.338 77.8733 173.286 76.8203 171.988 76.8203C170.69 76.8203 169.638 77.8733 169.638 79.1722C169.638 80.471 170.69 81.524 171.988 81.524Z" fill="#090814"/>
<path d="M207.626 108.567C208.924 108.567 209.976 107.514 209.976 106.215C209.976 104.916 208.924 103.863 207.626 103.863C206.328 103.863 205.276 104.916 205.276 106.215C205.276 107.514 206.328 108.567 207.626 108.567Z" fill="#090814"/>
<path d="M144.182 76.4283C145.479 76.4283 146.532 75.3753 146.532 74.0765C146.532 72.7776 145.479 71.7246 144.182 71.7246C142.884 71.7246 141.832 72.7776 141.832 74.0765C141.832 75.3753 142.884 76.4283 144.182 76.4283Z" fill="#090814"/>
<path d="M143.32 74.0827L130.463 74.4688L130.487 75.2531L143.343 74.8671L143.32 74.0827Z" fill="#090814"/>
<path d="M226.742 115.218H207.258V106.215H208.041V114.434H226.744L226.742 115.218Z" fill="#090814"/>
<path d="M143.217 102.106C144.515 102.106 145.567 101.053 145.567 99.7542C145.567 98.4553 144.515 97.4023 143.217 97.4023C141.92 97.4023 140.867 98.4553 140.867 99.7542C140.867 101.053 141.92 102.106 143.217 102.106Z" fill="#090814"/>
<path d="M162.101 108.757H142.617V99.7539H143.4V107.973H162.103L162.101 108.757Z" fill="#090814"/>
<path d="M221.724 90.8066H128.132V91.5907H221.724V90.8066Z" fill="#090814"/>
</g>
<defs>
<clipPath id="clip0_1595_14131">
<rect width="250" height="269" fill="white"/>
</clipPath>
</defs>
</svg>
