<svg width="16" height="17" viewBox="0 0 16 17" fill="none" xmlns="http://www.w3.org/2000/svg">
<path fill-rule="evenodd" clip-rule="evenodd" d="M2.16666 7.26285C2.16666 3.99683 4.77 1.33398 7.99999 1.33398C11.23 1.33398 13.8333 3.99683 13.8333 7.26285C13.8333 8.83958 13.384 10.5326 12.5896 11.9952C11.7962 13.4561 10.6371 14.7255 9.187 15.4032C8.4337 15.7553 7.56628 15.7553 6.81298 15.4032C5.3629 14.7255 4.20374 13.4561 3.41036 11.9952C2.61601 10.5326 2.16666 8.83958 2.16666 7.26285ZM7.99999 2.33398C5.33894 2.33398 3.16666 4.53231 3.16666 7.26285C3.16666 8.6609 3.56841 10.1909 4.28913 11.518C5.01082 12.8468 6.03067 13.9337 7.23642 14.4973C7.72136 14.724 8.27862 14.724 8.76356 14.4973C9.96931 13.9337 10.9892 12.8468 11.7109 11.518C12.4316 10.1909 12.8333 8.6609 12.8333 7.26285C12.8333 4.53231 10.661 2.33398 7.99999 2.33398ZM7.99999 5.00065C8.27613 5.00065 8.49999 5.22451 8.49999 5.50065V6.66732H9.66666C9.9428 6.66732 10.1667 6.89118 10.1667 7.16732C10.1667 7.44346 9.9428 7.66732 9.66666 7.66732H8.49999V8.83398C8.49999 9.11013 8.27613 9.33398 7.99999 9.33398C7.72385 9.33398 7.49999 9.11013 7.49999 8.83398V7.66732H6.33332C6.05718 7.66732 5.83332 7.44346 5.83332 7.16732C5.83332 6.89118 6.05718 6.66732 6.33332 6.66732H7.49999V5.50065C7.49999 5.22451 7.72385 5.00065 7.99999 5.00065Z" fill="white"/>
</svg>
