<svg width="28" height="29" viewBox="0 0 28 29" fill="none" xmlns="http://www.w3.org/2000/svg">
<rect x="0.5" y="1" width="27" height="27" rx="13.5" fill="white"/>
<rect x="0.5" y="1" width="27" height="27" rx="13.5" stroke="#F0F0F0"/>
<path fill-rule="evenodd" clip-rule="evenodd" d="M11.0655 9.49111C11.2434 8.61785 12.0205 8 12.9108 8H15.089C15.9793 8 16.7564 8.61785 16.9343 9.49111C16.9754 9.6927 17.158 9.84057 17.3479 9.84057H17.3588L17.3698 9.84105C18.3054 9.88196 19.024 9.99678 19.624 10.3904C20.002 10.6384 20.3272 10.9574 20.5806 11.3298C20.8958 11.793 21.0349 12.3246 21.1015 12.9676C21.1666 13.5959 21.1666 14.3833 21.1666 15.3807V15.4375C21.1666 16.4349 21.1666 17.2223 21.1015 17.8505C21.0349 18.4936 20.8958 19.0252 20.5806 19.4884C20.3272 19.8607 20.002 20.1798 19.624 20.4278C19.155 20.7355 18.6174 20.8711 17.9653 20.9362C17.3268 21 16.5259 21 15.5089 21H12.491C11.4739 21 10.673 21 10.0346 20.9362C9.38245 20.8711 8.84479 20.7355 8.37582 20.4278C7.9978 20.1798 7.67262 19.8607 7.41924 19.4884C7.104 19.0252 6.96496 18.4936 6.89833 17.8505C6.83324 17.2223 6.83325 16.4348 6.83325 15.4375V15.3807C6.83325 14.3833 6.83324 13.5959 6.89833 12.9676C6.96496 12.3246 7.104 11.793 7.41924 11.3298C7.67262 10.9574 7.9978 10.6384 8.37582 10.3904C8.9758 9.99678 9.69445 9.88196 10.6301 9.84105L10.641 9.84057H10.6519C10.8418 9.84057 11.0245 9.6927 11.0655 9.49111ZM12.9108 9C12.4834 9 12.126 9.29533 12.0454 9.69071C11.915 10.3311 11.3473 10.8346 10.6641 10.8405C9.76507 10.8805 9.28349 10.9909 8.92434 11.2265C8.65531 11.403 8.42493 11.6294 8.24596 11.8924C8.06186 12.1629 7.95122 12.5088 7.89301 13.0707C7.83388 13.6414 7.83325 14.3771 7.83325 15.4091C7.83325 16.4411 7.83388 17.1768 7.89301 17.7475C7.95122 18.3093 8.06186 18.6553 8.24596 18.9258C8.42493 19.1888 8.65531 19.4152 8.92435 19.5917C9.2027 19.7743 9.55888 19.8838 10.1339 19.9412C10.7169 19.9994 11.4679 20 12.5184 20H15.4814C16.532 20 17.2829 19.9994 17.8659 19.9412C18.441 19.8838 18.7971 19.7743 19.0755 19.5917C19.3445 19.4152 19.5749 19.1888 19.7539 18.9258C19.938 18.6553 20.0486 18.3093 20.1068 17.7475C20.166 17.1768 20.1666 16.4411 20.1666 15.4091C20.1666 14.3771 20.166 13.6414 20.1068 13.0707C20.0486 12.5088 19.938 12.1629 19.7539 11.8924C19.5749 11.6294 19.3445 11.403 19.0755 11.2265C18.7163 10.9909 18.2348 10.8805 17.3357 10.8405C16.6526 10.8346 16.0849 10.3311 15.9544 9.69071C15.8739 9.29533 15.5164 9 15.089 9H12.9108ZM13.9999 13.6667C13.1715 13.6667 12.4999 14.3382 12.4999 15.1667C12.4999 15.9951 13.1715 16.6667 13.9999 16.6667C14.8283 16.6667 15.4999 15.9951 15.4999 15.1667C15.4999 14.3382 14.8283 13.6667 13.9999 13.6667ZM11.4999 15.1667C11.4999 13.786 12.6192 12.6667 13.9999 12.6667C15.3806 12.6667 16.4999 13.786 16.4999 15.1667C16.4999 16.5474 15.3806 17.6667 13.9999 17.6667C12.6192 17.6667 11.4999 16.5474 11.4999 15.1667ZM17.4999 13.1667C17.4999 12.8905 17.7238 12.6667 17.9999 12.6667H18.6666C18.9427 12.6667 19.1666 12.8905 19.1666 13.1667C19.1666 13.4428 18.9427 13.6667 18.6666 13.6667H17.9999C17.7238 13.6667 17.4999 13.4428 17.4999 13.1667Z" fill="#4C9343"/>
</svg>
