<svg width="40" height="40" viewBox="0 0 40 40" fill="none" xmlns="http://www.w3.org/2000/svg">
<rect width="40" height="40" rx="20" fill="#88BE46" fill-opacity="0.16"/>
<path d="M16.75 21C16.75 20.5858 16.4142 20.25 16 20.25C15.5858 20.25 15.25 20.5858 15.25 21V25C15.25 25.4142 15.5858 25.75 16 25.75C16.4142 25.75 16.75 25.4142 16.75 25V21Z" fill="#88BE46"/>
<path d="M24 20.25C24.4142 20.25 24.75 20.5858 24.75 21V25C24.75 25.4142 24.4142 25.75 24 25.75C23.5858 25.75 23.25 25.4142 23.25 25V21C23.25 20.5858 23.5858 20.25 24 20.25Z" fill="#88BE46"/>
<path d="M20.75 21C20.75 20.5858 20.4142 20.25 20 20.25C19.5858 20.25 19.25 20.5858 19.25 21V25C19.25 25.4142 19.5858 25.75 20 25.75C20.4142 25.75 20.75 25.4142 20.75 25V21Z" fill="#88BE46"/>
<path fill-rule="evenodd" clip-rule="evenodd" d="M25.2738 11.473C24.7983 11.2871 24.2655 11.2557 23.582 11.2508C23.3013 10.6591 22.6984 10.25 22 10.25H18C17.3016 10.25 16.6988 10.6591 16.4181 11.2508C15.7345 11.2557 15.2018 11.2871 14.7262 11.473C14.158 11.695 13.6638 12.0725 13.3001 12.5623C12.9332 13.0564 12.7609 13.6897 12.5239 14.5613L11.896 16.8643C11.5085 17.0627 11.1694 17.3299 10.8865 17.6922C10.2645 18.4888 10.1544 19.4377 10.265 20.5261C10.3724 21.5822 10.7049 22.9121 11.1211 24.5769L11.1475 24.6825C11.4107 25.7353 11.6244 26.5901 11.8785 27.2572C12.1435 27.9527 12.4799 28.5227 13.0345 28.9558C13.5891 29.3888 14.2238 29.5769 14.9628 29.6653C15.6716 29.75 16.5527 29.75 17.6379 29.75H22.3621C23.4473 29.75 24.3284 29.75 25.0372 29.6653C25.7762 29.5769 26.4108 29.3888 26.9654 28.9558C27.5201 28.5227 27.8565 27.9527 28.1214 27.2572C28.3756 26.5901 28.5893 25.7353 28.8524 24.6825L28.8788 24.577C29.295 22.9122 29.6276 21.5822 29.7349 20.5261C29.8456 19.4377 29.7354 18.4888 29.1134 17.6922C28.8306 17.3299 28.4915 17.0627 28.1041 16.8643L27.4762 14.5613C27.2391 13.6897 27.0669 13.0564 26.6999 12.5623C26.3362 12.0725 25.842 11.695 25.2738 11.473ZM15.2723 12.8701C15.4921 12.7842 15.7576 12.7589 16.4195 12.7522C16.7008 13.3422 17.3028 13.75 18 13.75H22C22.6973 13.75 23.2993 13.3422 23.5806 12.7522C24.2424 12.7589 24.508 12.7842 24.7278 12.8701C25.0337 12.9896 25.2998 13.1929 25.4957 13.4566C25.6718 13.6938 25.7751 14.0251 26.066 15.0919L26.4196 16.3887C25.3818 16.25 24.042 16.25 22.3774 16.25H17.6226C15.958 16.25 14.6182 16.25 13.5804 16.3887L13.934 15.0919C14.2249 14.0251 14.3282 13.6938 14.5044 13.4566C14.7002 13.1929 14.9663 12.9896 15.2723 12.8701ZM18 11.75C17.862 11.75 17.75 11.8619 17.75 12C17.75 12.1381 17.862 12.25 18 12.25H22C22.1381 12.25 22.25 12.1381 22.25 12C22.25 11.8619 22.1381 11.75 22 11.75H18ZM12.0688 18.6153C12.3477 18.2582 12.7887 18.0183 13.6998 17.8865C14.6305 17.7519 15.8923 17.75 17.6846 17.75H22.3153C24.1077 17.75 25.3695 17.7519 26.3001 17.8865C27.2113 18.0183 27.6523 18.2582 27.9311 18.6153C28.21 18.9725 28.3357 19.4584 28.2426 20.3744C28.1475 21.3099 27.8433 22.5345 27.4086 24.2733C27.1313 25.3824 26.9382 26.1496 26.7197 26.7231C26.5084 27.2778 26.3015 27.5711 26.0423 27.7735C25.7832 27.9758 25.4484 28.1054 24.8591 28.1759C24.2497 28.2488 23.4585 28.25 22.3153 28.25H17.6846C16.5415 28.25 15.7503 28.2488 15.1409 28.1759C14.5515 28.1054 14.2168 27.9758 13.9576 27.7735C13.6985 27.5711 13.4916 27.2778 13.2802 26.7231C13.0618 26.1496 12.8687 25.3824 12.5914 24.2733C12.1567 22.5345 11.8525 21.3099 11.7574 20.3744C11.6642 19.4584 11.79 18.9725 12.0688 18.6153Z" fill="#88BE46"/>
</svg>
