<svg width="32" height="33" viewBox="0 0 32 33" fill="none" xmlns="http://www.w3.org/2000/svg">
<path fill-rule="evenodd" clip-rule="evenodd" d="M2.983 3.5511C2.45906 3.37645 1.89274 3.65961 1.71809 4.18356C1.54344 4.7075 1.8266 5.27382 2.35055 5.44847L2.70376 5.5662C3.60564 5.86683 4.2019 6.06718 4.64117 6.27153C5.05712 6.46503 5.23695 6.62076 5.35218 6.78062C5.46741 6.94049 5.55827 7.16034 5.61031 7.61614C5.66526 8.09748 5.66678 8.7265 5.66678 9.67717L5.66677 13.2396C5.66675 15.0631 5.66673 16.5328 5.82214 17.6888C5.98349 18.8889 6.32869 19.8994 7.13124 20.702C7.9338 21.5045 8.9443 21.8497 10.1444 22.0111C11.3004 22.1665 12.7701 22.1665 14.5936 22.1664H25.3334C25.8857 22.1664 26.3334 21.7187 26.3334 21.1664C26.3334 20.6142 25.8857 20.1664 25.3334 20.1664H14.6668C12.7529 20.1664 11.4181 20.1643 10.4109 20.0289C9.43257 19.8974 8.91447 19.6568 8.54546 19.2878C8.41653 19.1588 8.30327 19.0117 8.20487 18.8331H21.4114C22.0092 18.8332 22.5351 18.8332 22.9716 18.786C23.4442 18.735 23.902 18.6217 24.3328 18.3376C24.7636 18.0536 25.0481 17.6774 25.2811 17.2632C25.4964 16.8805 25.7035 16.3971 25.939 15.8477L26.5614 14.3953C27.074 13.1993 27.5029 12.1987 27.7176 11.3849C27.9416 10.5359 27.9999 9.64952 27.4716 8.84831C26.9432 8.0471 26.1055 7.75153 25.237 7.62294C24.4044 7.49969 23.3158 7.49973 22.0145 7.49978L7.60912 7.49978C7.60545 7.46246 7.60155 7.42563 7.5974 7.38927C7.5236 6.74285 7.36279 6.1497 6.97466 5.6112C6.58654 5.0727 6.07468 4.73258 5.48476 4.45815C4.92979 4.19997 4.22402 3.96474 3.38885 3.68638L2.983 3.5511ZM7.66677 9.49978C7.66678 9.54011 7.66678 9.58073 7.66678 9.62164L7.66678 13.1664C7.66678 14.7291 7.66819 15.9057 7.74241 16.8331H21.3625C22.0237 16.8331 22.4405 16.8318 22.7569 16.7976C23.0492 16.766 23.1616 16.7142 23.2318 16.668C23.302 16.6217 23.3939 16.5388 23.538 16.2825C23.6941 16.0052 23.8595 15.6226 24.12 15.0149L24.6914 13.6815C25.2441 12.3919 25.6114 11.5282 25.7838 10.8748C25.9513 10.2398 25.8664 10.0471 25.8019 9.94929C25.7374 9.85148 25.5937 9.69755 24.9441 9.60138C24.2756 9.50242 23.337 9.49978 21.934 9.49978H7.66677Z" fill="#4C9343"/>
<path fill-rule="evenodd" clip-rule="evenodd" d="M7.00011 26.4998C7.00011 28.1566 8.34325 29.4998 10.0001 29.4998C11.657 29.4998 13.0001 28.1566 13.0001 26.4998C13.0001 24.8429 11.657 23.4998 10.0001 23.4998C8.34325 23.4998 7.00011 24.8429 7.00011 26.4998ZM10.0001 27.4998C9.44782 27.4998 9.00011 27.0521 9.00011 26.4998C9.00011 25.9475 9.44782 25.4998 10.0001 25.4998C10.5524 25.4998 11.0001 25.9475 11.0001 26.4998C11.0001 27.0521 10.5524 27.4998 10.0001 27.4998Z" fill="#4C9343"/>
<path fill-rule="evenodd" clip-rule="evenodd" d="M22.0001 29.4999C20.3433 29.4999 19.0001 28.1567 19.0001 26.4999C19.0001 24.843 20.3433 23.4999 22.0001 23.4999C23.657 23.4999 25.0001 24.843 25.0001 26.4999C25.0001 28.1567 23.657 29.4999 22.0001 29.4999ZM21.0001 26.4999C21.0001 27.0522 21.4478 27.4999 22.0001 27.4999C22.5524 27.4999 23.0001 27.0522 23.0001 26.4999C23.0001 25.9476 22.5524 25.4999 22.0001 25.4999C21.4478 25.4999 21.0001 25.9476 21.0001 26.4999Z" fill="#4C9343"/>
</svg>
