<svg width="33" height="32" viewBox="0 0 33 32" fill="none" xmlns="http://www.w3.org/2000/svg">
<path fill-rule="evenodd" clip-rule="evenodd" d="M25.1667 1.66602C25.719 1.66602 26.1667 2.11373 26.1667 2.66602V6.33268H29.8334C30.3857 6.33268 30.8334 6.7804 30.8334 7.33268C30.8334 7.88497 30.3857 8.33268 29.8334 8.33268H26.1667V11.9993C26.1667 12.5516 25.719 12.9993 25.1667 12.9993C24.6145 12.9993 24.1667 12.5516 24.1667 11.9993V8.33268H20.5001C19.9478 8.33268 19.5001 7.88497 19.5001 7.33268C19.5001 6.7804 19.9478 6.33268 20.5001 6.33268H24.1667V2.66602C24.1667 2.11373 24.6145 1.66602 25.1667 1.66602Z" fill="#A1A1A1"/>
<path fill-rule="evenodd" clip-rule="evenodd" d="M16.5001 1.66602L16.4236 1.66602C13.3457 1.666 10.9337 1.66599 9.05169 1.91901C7.12537 2.178 5.60534 2.71845 4.41226 3.91153C3.21918 5.10461 2.67873 6.62464 2.41974 8.55096C2.16672 10.4329 2.16673 12.845 2.16675 15.9228V16.0759C2.16673 19.1537 2.16672 21.5658 2.41974 23.4477C2.67873 25.3741 3.21918 26.8941 4.41226 28.0872C5.60534 29.2802 7.12537 29.8207 9.05169 30.0797C10.9337 30.3327 13.3457 30.3327 16.4236 30.3327H16.5766C19.6544 30.3327 22.0665 30.3327 23.9485 30.0797C25.8748 29.8207 27.3948 29.2802 28.5879 28.0872C29.781 26.8941 30.3214 25.3741 30.5804 23.4477C30.8334 21.5658 30.8334 19.1537 30.8334 16.0758V15.9993C30.8334 15.4471 30.3857 14.9993 29.8334 14.9993C29.2811 14.9993 28.8334 15.4471 28.8334 15.9993C28.8334 19.1703 28.8313 21.4479 28.5983 23.1812C28.5891 23.2496 28.5795 23.3169 28.5697 23.3831L24.871 20.0543C23.1384 18.495 20.5583 18.3398 18.6512 19.68L18.2536 19.9594C17.591 20.4251 16.6895 20.347 16.1168 19.7744L10.3972 14.0547C8.88329 12.5408 6.45493 12.46 4.8437 13.8698L4.16805 14.461C4.17411 12.0713 4.20841 10.2567 4.40191 8.81745C4.63108 7.11291 5.06694 6.08529 5.82648 5.32574C6.58602 4.5662 7.61365 4.13035 9.31818 3.90118C11.0515 3.66814 13.3291 3.66602 16.5001 3.66602C17.0524 3.66602 17.5001 3.2183 17.5001 2.66602C17.5001 2.11373 17.0524 1.66602 16.5001 1.66602ZM4.40191 23.1812C4.63108 24.8858 5.06694 25.9134 5.82648 26.673C6.58602 27.4325 7.61365 27.8684 9.31818 28.0975C11.0515 28.3306 13.3291 28.3327 16.5001 28.3327C19.671 28.3327 21.9487 28.3306 23.682 28.0975C25.3865 27.8684 26.4141 27.4325 27.1737 26.673C27.4984 26.3482 27.764 25.9745 27.9795 25.5199C27.9276 25.4882 27.8779 25.4513 27.8311 25.4092L23.5331 21.5409C22.4935 20.6053 20.9454 20.5122 19.8012 21.3163L19.4036 21.5958C17.9458 22.6203 15.9625 22.4485 14.7026 21.1886L8.98296 15.4689C8.21361 14.6996 6.97952 14.6585 6.1607 15.375L4.16726 17.1192C4.17069 19.7172 4.19726 21.6591 4.40191 23.1812Z" fill="#A1A1A1"/>
</svg>
