<svg width="16" height="17" viewBox="0 0 16 17" fill="none" xmlns="http://www.w3.org/2000/svg">
<path fill-rule="evenodd" clip-rule="evenodd" d="M9.83768 2.24828C11.0567 1.02922 13.0332 1.02922 14.2523 2.24828C15.4714 3.46735 15.4714 5.44384 14.2523 6.66291L7.92876 12.9864C7.56749 13.3477 7.35481 13.5604 7.11822 13.745C6.83935 13.9625 6.53762 14.149 6.21836 14.3011C5.94749 14.4302 5.66215 14.5253 5.17741 14.6869L2.95666 15.4271L2.42194 15.6054C1.98823 15.7499 1.51007 15.637 1.1868 15.3138C0.863532 14.9905 0.750653 14.5124 0.895223 14.0786L1.81371 11.3232C1.97527 10.8384 2.07037 10.5531 2.19946 10.2822C2.35162 9.96297 2.5381 9.66123 2.75561 9.38236C2.94015 9.14576 3.15284 8.93309 3.51416 8.57179L9.83768 2.24828ZM2.93359 14.3807L4.82794 13.7493C5.35535 13.5735 5.57943 13.4979 5.78814 13.3984C6.04183 13.2775 6.2816 13.1293 6.5032 12.9565C6.6855 12.8143 6.85334 12.6477 7.24645 12.2545L12.2928 7.20823C11.767 7.02279 11.0897 6.67907 10.4556 6.04499C9.82151 5.41091 9.47779 4.73358 9.29235 4.20782L4.24604 9.25414C3.85293 9.64725 3.68631 9.81508 3.54412 9.99739C3.37128 10.219 3.22309 10.4587 3.10219 10.7124C3.00272 10.9212 2.92712 11.1452 2.75131 11.6726L2.11987 13.567L2.93359 14.3807ZM10.1035 3.39668C10.1263 3.51332 10.1648 3.67188 10.2291 3.85723C10.3739 4.27453 10.6474 4.82257 11.1627 5.33788C11.678 5.85319 12.226 6.12667 12.6433 6.27145C12.8287 6.33576 12.9873 6.37429 13.1039 6.39709L13.5452 5.9558C14.3737 5.12726 14.3737 3.78393 13.5452 2.95539C12.7167 2.12685 11.3733 2.12685 10.5448 2.95539L10.1035 3.39668Z" fill="white"/>
</svg>
