<svg width="16" height="17" viewBox="0 0 16 17" fill="none" xmlns="http://www.w3.org/2000/svg">
<path fill-rule="evenodd" clip-rule="evenodd" d="M3.30192 2C3.31233 2 3.32278 2 3.33326 2L12.6979 2C13.1425 1.99998 13.5226 1.99996 13.8264 2.03828C14.1486 2.07892 14.46 2.1702 14.7158 2.41016C14.9761 2.65436 15.0795 2.95904 15.1249 3.27603C15.1666 3.56723 15.1666 3.92931 15.1666 4.34239L15.1666 4.86008C15.1666 5.18575 15.1666 5.4673 15.1423 5.70207C15.1161 5.95471 15.0589 6.19173 14.9216 6.41929C14.7853 6.64513 14.6018 6.80907 14.3902 6.95602C14.1909 7.09446 13.9363 7.2378 13.6368 7.40637L11.6752 8.51063C11.2286 8.76199 11.0732 8.8525 10.9694 8.94262C10.731 9.14958 10.5945 9.37921 10.5303 9.66692C10.5029 9.78991 10.4999 9.94481 10.4999 10.4153L10.4999 12.2367C10.5 12.8375 10.5 13.3476 10.4382 13.7397C10.3724 14.1567 10.2198 14.5566 9.81977 14.8068C9.42887 15.0513 8.99826 15.0289 8.57979 14.9295C8.17676 14.8338 7.6801 14.6396 7.08416 14.4066L7.02624 14.384C6.74709 14.2749 6.50266 14.1793 6.30915 14.0794C6.10118 13.972 5.90805 13.8384 5.76029 13.6305C5.61086 13.4202 5.55095 13.1947 5.52424 12.9642C5.49988 12.754 5.4999 12.5018 5.49992 12.2204L5.49992 10.4153C5.49992 9.94481 5.49695 9.78991 5.46953 9.66692C5.40538 9.37921 5.26887 9.14958 5.03048 8.94262C4.92668 8.8525 4.7712 8.76199 4.32468 8.51063L2.36306 7.40637C2.06358 7.2378 1.80894 7.09446 1.60964 6.95602C1.39808 6.80907 1.21452 6.64513 1.07823 6.41929C0.940908 6.19173 0.883723 5.95471 0.85755 5.70207C0.833228 5.4673 0.83324 5.18575 0.833255 4.86008L0.833255 4.37644C0.833255 4.36505 0.833254 4.35369 0.833254 4.34238C0.833223 3.92931 0.833195 3.56723 0.874923 3.27603C0.920348 2.95904 1.02376 2.65436 1.28404 2.41016C1.53981 2.1702 1.85122 2.07892 2.17341 2.03828C2.4772 1.99996 2.8573 1.99998 3.30192 2ZM2.29856 3.03042C2.07612 3.05848 2.00538 3.10461 1.96826 3.13944C1.93565 3.17004 1.89261 3.2239 1.86481 3.41789C1.83446 3.6297 1.83326 3.91912 1.83326 4.37644V4.83632C1.83326 5.19246 1.83387 5.42185 1.85223 5.59903C1.86932 5.76404 1.89867 5.84338 1.93441 5.90261C1.97119 5.96355 2.03225 6.032 2.18014 6.13473C2.33596 6.24296 2.54882 6.36339 2.87321 6.54599L4.81522 7.63922C4.83341 7.64945 4.85132 7.65953 4.86896 7.66946C5.24143 7.879 5.49511 8.02172 5.68605 8.18749C6.08029 8.52975 6.33323 8.94548 6.44557 9.4493C6.50016 9.69417 6.50007 9.96874 6.49993 10.3563C6.49993 10.3757 6.49992 10.3953 6.49992 10.4153V12.1949C6.49992 12.5097 6.5007 12.7033 6.51759 12.8491C6.53287 12.9809 6.55693 13.0252 6.57545 13.0512C6.59564 13.0797 6.63563 13.1225 6.76794 13.1909C6.90955 13.264 7.10464 13.3409 7.41274 13.4614C8.05341 13.7118 8.48434 13.879 8.81087 13.9566C9.12993 14.0323 9.23508 13.993 9.28948 13.959C9.33476 13.9307 9.40478 13.8731 9.45036 13.584C9.49843 13.2791 9.49992 12.849 9.49992 12.1949V10.4153C9.49992 10.3953 9.49991 10.3757 9.49991 10.3563C9.49978 9.96875 9.49968 9.69417 9.55428 9.4493C9.66661 8.94547 9.91955 8.52975 10.3138 8.18749C10.5047 8.02172 10.7584 7.87901 11.1309 7.66947C11.1485 7.65954 11.1664 7.64946 11.1846 7.63921L13.1266 6.54599C13.451 6.36339 13.6639 6.24296 13.8197 6.13473C13.9676 6.032 14.0287 5.96355 14.0654 5.90261C14.1012 5.84338 14.1305 5.76404 14.1476 5.59903C14.166 5.42185 14.1666 5.19246 14.1666 4.83632V4.37644C14.1666 3.91912 14.1654 3.6297 14.135 3.41789C14.1072 3.2239 14.0642 3.17004 14.0316 3.13944C13.9945 3.10461 13.9237 3.05848 13.7013 3.03042C13.4676 3.00094 13.1513 3 12.6666 3H3.33326C2.84857 3 2.53228 3.00094 2.29856 3.03042Z" fill="#4C9343"/>
</svg>
