<svg width="41" height="40" viewBox="0 0 41 40" fill="none" xmlns="http://www.w3.org/2000/svg">
<rect x="0.666748" width="40" height="40" rx="20" fill="#DD3D3D" fill-opacity="0.16"/>
<path fill-rule="evenodd" clip-rule="evenodd" d="M14.2911 12.4251C12.6321 13.1834 11.4167 14.9871 11.4167 17.138C11.4167 19.3354 12.316 21.0291 13.605 22.4807C14.6675 23.677 15.9536 24.6685 17.2079 25.6355C17.5058 25.8652 17.8019 26.0935 18.0928 26.3228C18.6188 26.7375 19.0881 27.1014 19.5404 27.3657C19.9929 27.6301 20.3571 27.7509 20.6667 27.7509C20.9763 27.7509 21.3406 27.6301 21.7931 27.3657C22.2454 27.1014 22.7147 26.7375 23.2407 26.3228C23.5316 26.0935 23.8277 25.8652 24.1256 25.6355C25.3799 24.6685 26.666 23.677 27.7285 22.4807C29.0175 21.0291 29.9167 19.3354 29.9167 17.138C29.9167 14.9871 28.7014 13.1834 27.0424 12.4251C25.4307 11.6884 23.2651 11.8835 21.2071 14.0216C21.0657 14.1685 20.8706 14.2515 20.6667 14.2515C20.4629 14.2515 20.2678 14.1685 20.1264 14.0216C18.0684 11.8835 15.9028 11.6884 14.2911 12.4251ZM20.6667 12.4597C18.3547 10.3911 15.7657 10.1018 13.6675 11.0608C11.4515 12.0738 9.91675 14.4259 9.91675 17.138C9.91675 19.8035 11.0272 21.8369 12.4835 23.4767C13.6496 24.7898 15.077 25.8888 16.3376 26.8595C16.6233 27.0795 16.9005 27.2929 17.1642 27.5008C17.6764 27.9046 18.2263 28.3352 18.7836 28.6608C19.3406 28.9863 19.9763 29.2509 20.6667 29.2509C21.3571 29.2509 21.9929 28.9863 22.5499 28.6608C23.1072 28.3352 23.6571 27.9046 24.1693 27.5008C24.433 27.2929 24.7102 27.0795 24.9959 26.8595C26.2565 25.8888 27.6839 24.7898 28.85 23.4767C30.3063 21.8369 31.4167 19.8035 31.4167 17.138C31.4167 14.4259 29.882 12.0738 27.666 11.0608C25.5678 10.1018 22.9788 10.3911 20.6667 12.4597Z" fill="#DD3D3D"/>
</svg>
