<svg width="300" height="224" viewBox="0 0 300 224" fill="none" xmlns="http://www.w3.org/2000/svg">
<path d="M150.003 223.536C214.252 223.536 266.337 220.495 266.337 216.744C266.337 212.993 214.252 209.952 150.003 209.952C85.7533 209.952 33.6688 212.993 33.6688 216.744C33.6688 220.495 85.7533 223.536 150.003 223.536Z" fill="#F5F5F5"/>
<path d="M75.6658 170.213H152.73V209.998C152.73 210.508 152.629 211.013 152.434 211.484C152.239 211.954 151.953 212.382 151.593 212.743C151.232 213.103 150.804 213.389 150.333 213.584C149.862 213.779 149.358 213.88 148.848 213.88H79.5478C79.038 213.88 78.5332 213.779 78.0623 213.584C77.5913 213.389 77.1633 213.103 76.8028 212.743C76.4424 212.382 76.1564 211.954 75.9613 211.484C75.7662 211.013 75.6658 210.508 75.6658 209.998V170.213Z" fill="#4C9343"/>
<path d="M75.664 170.214H130.198L123.49 161.628C122.752 160.686 120.928 159.924 119.41 159.924H70.366C68.854 159.924 68.218 160.686 68.956 161.628L75.664 170.214Z" fill="#4C9343"/>
<path opacity="0.2" d="M75.664 170.214H130.198L123.49 161.628C122.752 160.686 120.928 159.924 119.41 159.924H70.366C68.854 159.924 68.218 160.686 68.956 161.628L75.664 170.214Z" fill="black"/>
<path d="M152.732 170.21H98.2041L104.912 164.612C105.65 164.012 107.474 163.502 108.992 163.502H158.03C159.548 163.502 160.178 164 159.44 164.612L152.732 170.21Z" fill="#4C9343"/>
<path opacity="0.2" d="M98.2041 170.213H152.732V209.998C152.732 210.508 152.632 211.013 152.437 211.484C152.241 211.954 151.956 212.382 151.595 212.743C151.235 213.103 150.807 213.389 150.336 213.584C149.865 213.779 149.36 213.88 148.85 213.88H102.086C101.576 213.88 101.072 213.779 100.601 213.584C100.13 213.389 99.7016 213.103 99.3411 212.743C98.9806 212.382 98.6947 211.954 98.4996 211.484C98.3045 211.013 98.2041 210.508 98.2041 209.998V170.213Z" fill="white"/>
<path opacity="0.5" d="M82.4378 170.213V197.5L84.3218 196.012L85.6478 197.5L86.7998 195.844L87.9818 197.5L89.6258 196.258L91.4378 197.5V170.213H82.4378Z" fill="white"/>
<path d="M94.634 110.686L84.944 102.55" stroke="#4C9343" stroke-miterlimit="10"/>
<path d="M99.6514 114.909L96.6994 112.425" stroke="#4C9343" stroke-miterlimit="10"/>
<path d="M128.683 131.933L160.651 91.9803L118.087 56.2451L89.8868 88.6024L85.6868 96.6962C85.4783 96.926 85.3194 97.1963 85.2201 97.4902C85.1208 97.7842 85.0833 98.0955 85.1097 98.4046C85.1362 98.7138 85.2261 99.0141 85.374 99.2869C85.5218 99.5597 85.7243 99.7991 85.9688 99.9901L124.369 132.233C124.993 132.737 125.785 132.985 126.585 132.93C127.385 132.874 128.134 132.518 128.683 131.933Z" fill="#4C9343"/>
<path opacity="0.5" d="M106.76 102.475L102.158 109.884L104.012 110.286L104.642 112.002L105.872 112.074L106.442 113.544L107.948 113.982L109.106 115.824L113.708 108.414L106.76 102.475Z" fill="white"/>
<path opacity="0.1" d="M159.258 90.8103L130.59 122.79L89.8681 88.6024L118.086 56.2451L159.258 90.8103Z" fill="black"/>
<path d="M159.258 90.8105L130.59 122.79L142.458 123.666L170.682 91.3085L159.258 90.8105Z" fill="#4C9343"/>
<path opacity="0.3" d="M159.258 90.8105L130.59 122.79L142.458 123.666L170.682 91.3085L159.258 90.8105Z" fill="black"/>
<path d="M106.669 55.7314L77.995 87.7167L89.869 88.5927L118.087 56.2354L106.669 55.7314Z" fill="#4C9343"/>
<path opacity="0.4" d="M106.669 55.7314L77.995 87.7167L89.869 88.5927L118.087 56.2354L106.669 55.7314Z" fill="black"/>
<path opacity="0.1" d="M150.429 100.656L159.255 90.8103L118.083 56.2451L112.815 68.9408L150.429 100.656Z" fill="black"/>
<path opacity="0.2" d="M89.8681 88.6024L118.086 56.2451L112.818 68.9408L92.9461 91.1883L89.8681 88.6024Z" fill="black"/>
<path d="M169.199 30.5847C169.313 30.9686 169.199 31.3466 168.947 31.4186C168.695 31.4906 168.401 31.2386 168.287 30.8546C168.173 30.4707 168.287 30.0927 168.539 30.0147C168.791 29.9367 169.091 30.2007 169.199 30.5847Z" fill="#263238"/>
<path d="M169.244 31.3555C169.131 32.6756 168.836 33.9738 168.368 35.2134C168.689 35.3246 169.03 35.3646 169.368 35.3304C169.705 35.2962 170.032 35.1887 170.324 35.0154L169.244 31.3555Z" fill="#ED847E"/>
<path d="M169.995 28.0481C170.046 28.0188 170.085 27.9718 170.103 27.9161C170.115 27.887 170.12 27.8559 170.119 27.8247C170.118 27.7936 170.11 27.763 170.096 27.7349C170.083 27.7068 170.064 27.6817 170.04 27.6613C170.017 27.6408 169.989 27.6255 169.959 27.6161C169.608 27.4813 169.229 27.4333 168.855 27.4761C168.481 27.519 168.123 27.6513 167.811 27.8621C167.771 27.9032 167.746 27.9576 167.743 28.0153C167.739 28.073 167.756 28.1301 167.791 28.176C167.826 28.222 167.877 28.2538 167.933 28.2656C167.99 28.2773 168.049 28.2683 168.099 28.2401C168.349 28.0766 168.633 27.975 168.93 27.9437C169.226 27.9124 169.526 27.9523 169.803 28.0601C169.835 28.0714 169.868 28.0762 169.901 28.0742C169.934 28.0721 169.966 28.0632 169.995 28.0481Z" fill="#263238"/>
<path d="M182.543 33.1666C182.807 36.3465 183.593 42.1664 185.471 43.5104C185.471 43.5104 185.027 47.3323 178.271 48.3103C170.867 49.4022 174.191 45.1543 174.191 45.1543C178.085 43.5944 177.539 40.6124 176.423 37.9005L179.279 34.6246C180.377 33.4126 182.399 31.5407 182.543 33.1666Z" fill="#FFC3BD"/>
<path d="M187.889 45.0517C188.489 44.5057 187.289 42.3218 186.551 42.0158C184.619 41.2058 176.717 42.0158 173.747 44.5657C173.5 44.9876 173.352 45.4593 173.311 45.9462C173.271 46.4331 173.339 46.9228 173.513 47.3796L187.889 45.0517Z" fill="white"/>
<path d="M213.052 205.443C212.857 205.532 212.646 205.581 212.431 205.587C212.217 205.593 212.004 205.556 211.804 205.479C211.725 205.416 211.667 205.331 211.638 205.234C211.609 205.138 211.61 205.035 211.642 204.939C211.658 204.861 211.691 204.787 211.738 204.722C211.786 204.658 211.847 204.605 211.918 204.567C212.566 204.189 214.168 204.687 214.234 204.711C214.256 204.717 214.275 204.729 214.29 204.746C214.305 204.763 214.315 204.784 214.318 204.807C214.321 204.831 214.317 204.855 214.306 204.876C214.295 204.897 214.279 204.915 214.258 204.927C213.874 205.139 213.47 205.312 213.052 205.443ZM212.176 204.711L212.038 204.771C211.997 204.793 211.961 204.824 211.933 204.861C211.905 204.899 211.886 204.941 211.876 204.987C211.834 205.203 211.918 205.269 211.942 205.287C212.23 205.491 213.208 205.197 213.886 204.855C213.333 204.682 212.749 204.632 212.176 204.711Z" fill="#4C9343"/>
<path d="M214.236 204.931C214.216 204.937 214.195 204.937 214.176 204.931C213.576 204.811 212.322 204.061 212.256 203.497C212.246 203.409 212.268 203.319 212.318 203.245C212.367 203.17 212.441 203.115 212.526 203.089C212.609 203.052 212.699 203.033 212.79 203.033C212.881 203.033 212.971 203.052 213.054 203.089C213.75 203.377 214.29 204.721 214.308 204.775C214.32 204.793 214.326 204.814 214.326 204.835C214.326 204.857 214.32 204.878 214.308 204.895C214.3 204.907 214.289 204.916 214.276 204.922C214.264 204.928 214.25 204.931 214.236 204.931ZM212.676 203.293C212.658 203.288 212.64 203.288 212.622 203.293C212.484 203.353 212.49 203.425 212.496 203.455C212.532 203.791 213.384 204.397 213.99 204.619C213.81 204.229 213.39 203.473 212.964 203.293C212.871 203.258 212.769 203.258 212.676 203.293Z" fill="#4C9343"/>
<path d="M177.891 211.884C177.249 211.884 176.631 211.794 176.421 211.506C176.368 211.431 176.339 211.341 176.339 211.248C176.339 211.155 176.368 211.065 176.421 210.99C176.461 210.921 176.515 210.86 176.579 210.811C176.643 210.763 176.716 210.728 176.793 210.708C177.627 210.486 179.379 211.482 179.451 211.524C179.474 211.535 179.492 211.552 179.503 211.574C179.515 211.596 179.519 211.621 179.515 211.646C179.51 211.67 179.499 211.692 179.481 211.709C179.463 211.726 179.44 211.737 179.415 211.74C178.913 211.834 178.403 211.882 177.891 211.884ZM177.099 210.912C177.022 210.909 176.945 210.919 176.871 210.942C176.775 210.963 176.691 211.022 176.637 211.104C176.553 211.254 176.583 211.326 176.637 211.368C176.871 211.692 178.137 211.698 179.037 211.566C178.44 211.225 177.782 211.003 177.099 210.912Z" fill="#4C9343"/>
<path d="M179.397 211.747H179.349C178.749 211.477 177.549 210.391 177.639 209.827C177.639 209.695 177.759 209.527 178.083 209.497C178.2 209.484 178.319 209.496 178.432 209.531C178.544 209.566 178.648 209.624 178.737 209.701C179.379 210.223 179.511 211.573 179.517 211.627C179.521 211.648 179.518 211.669 179.509 211.689C179.501 211.708 179.487 211.724 179.469 211.735C179.447 211.747 179.422 211.751 179.397 211.747ZM178.197 209.719H178.125C177.909 209.719 177.897 209.827 177.891 209.851C177.837 210.193 178.653 211.051 179.265 211.417C179.213 210.845 178.982 210.304 178.605 209.869C178.493 209.77 178.347 209.717 178.197 209.719Z" fill="#4C9343"/>
<path d="M184.905 211.629H179.895L179.397 200.037H184.407L184.905 211.629Z" fill="#FFC3BD"/>
<path d="M220.1 203.715L215.486 205.305L210.698 194.379L215.312 192.789L220.1 203.715Z" fill="#FFC3BD"/>
<path d="M214.383 204.155L219.783 202.506C219.879 202.476 219.981 202.481 220.074 202.518C220.167 202.555 220.244 202.622 220.293 202.71L222.543 206.669C222.597 206.766 222.629 206.874 222.635 206.985C222.642 207.096 222.624 207.206 222.581 207.309C222.539 207.412 222.475 207.503 222.392 207.578C222.31 207.652 222.212 207.706 222.105 207.737C220.215 208.283 219.273 208.451 216.909 209.177C215.451 209.621 211.779 211.013 209.709 211.427C207.639 211.841 206.973 209.861 207.777 209.507C211.377 207.917 212.853 206.111 213.711 204.707C213.861 204.448 214.1 204.252 214.383 204.155Z" fill="#263238"/>
<path d="M179.933 211.042H185.399C185.498 211.043 185.593 211.078 185.671 211.14C185.748 211.202 185.802 211.288 185.825 211.384L186.815 215.836C186.839 215.943 186.839 216.055 186.814 216.162C186.789 216.269 186.74 216.37 186.671 216.455C186.602 216.541 186.514 216.609 186.414 216.656C186.314 216.703 186.205 216.726 186.095 216.724C184.121 216.694 181.295 216.574 178.793 216.574C175.895 216.574 174.677 216.736 171.275 216.736C169.223 216.736 168.653 214.66 169.511 214.468C173.429 213.61 175.343 213.52 178.727 211.432C179.086 211.194 179.503 211.059 179.933 211.042Z" fill="#263238"/>
<path d="M194.485 46.6904C195.943 48.0284 197.203 49.3664 198.511 50.7643C199.819 52.1623 201.031 53.6083 202.207 55.1502C203.435 56.7167 204.55 58.3689 205.543 60.0941C206.085 61.045 206.555 62.0359 206.947 63.058C207.049 63.34 207.151 63.61 207.235 63.916C207.333 64.2255 207.415 64.5399 207.481 64.858L207.583 65.356L207.655 65.908C207.722 66.4138 207.722 66.9262 207.655 67.432C207.517 68.3866 207.164 69.2976 206.623 70.0959C206.228 70.6789 205.764 71.2127 205.243 71.6859C204.404 72.4467 203.487 73.1165 202.507 73.6838C200.78 74.6714 198.974 75.5124 197.107 76.1978C193.565 77.5125 189.915 78.5163 186.199 79.1977L185.149 75.5978C188.407 74.1878 191.707 72.6638 194.749 71.0379C196.229 70.2611 197.655 69.383 199.015 68.4099C199.581 68.0075 200.102 67.5448 200.569 67.03C200.71 66.8777 200.83 66.706 200.923 66.52C200.971 66.418 200.923 66.43 200.863 66.646C200.821 67.048 200.827 66.736 200.731 66.52C200.701 66.418 200.647 66.28 200.593 66.148C200.539 66.016 200.473 65.866 200.407 65.722C200.082 65.0676 199.719 64.4326 199.321 63.82C198.394 62.4442 197.392 61.1202 196.321 59.8541C195.217 58.5462 194.053 57.2442 192.859 55.9662C191.665 54.6882 190.411 53.3983 189.259 52.2103L194.485 46.6904Z" fill="#FFC3BD"/>
<path d="M186.521 75.0381L181.799 76.466L184.835 81.4579C184.835 81.4579 187.625 80.306 188.243 77.936L186.521 75.0381Z" fill="#FFC3BD"/>
<path d="M179.891 78.2407L181.751 82.3566L184.805 81.4686L181.769 76.4707L179.891 78.2407Z" fill="#FFC3BD"/>
<path d="M183.419 48.0575C182.969 52.8574 193.121 60.2852 193.121 60.2852L202.895 53.5954C201.198 50.4652 198.717 47.8293 195.695 45.9455C190.091 42.3576 183.983 42.0936 183.419 48.0575Z" fill="#4C9343"/>
<g opacity="0.3">
<path d="M183.419 48.0575C182.969 52.8574 193.121 60.2852 193.121 60.2852L202.895 53.5954C201.197 50.4652 198.716 47.8293 195.695 45.9455C190.091 42.3576 183.983 42.0936 183.419 48.0575Z" fill="white"/>
</g>
<path d="M166.801 47.6793C166.801 47.6793 162.415 54.4112 172.831 90.5183L199.315 86.6064C198.943 82.9465 194.515 66.9809 194.365 49.5273C194.359 48.6844 194.182 47.8515 193.845 47.0789C193.508 46.3063 193.018 45.6099 192.405 45.0318C191.792 44.4537 191.067 44.0059 190.276 43.7154C189.485 43.4248 188.643 43.2976 187.801 43.3414C187.033 43.3834 186.241 43.4374 185.455 43.5154C181.674 43.8525 177.916 44.4074 174.199 45.1774C171.673 45.8202 169.199 46.6567 166.801 47.6793Z" fill="#4C9343"/>
<g opacity="0.3">
<path d="M166.801 47.6793C166.801 47.6793 162.415 54.4112 172.831 90.5183L199.315 86.6064C198.943 82.9465 194.515 66.9809 194.365 49.5273C194.359 48.6844 194.182 47.8515 193.845 47.0789C193.508 46.3063 193.018 45.6099 192.405 45.0318C191.792 44.4537 191.067 44.0059 190.276 43.7154C189.485 43.4248 188.643 43.2976 187.801 43.3414C187.033 43.3834 186.241 43.4374 185.455 43.5154C181.674 43.8525 177.916 44.4074 174.199 45.1774C171.673 45.8202 169.199 46.6567 166.801 47.6793Z" fill="white"/>
</g>
<path opacity="0.2" d="M166.156 59.2807L166.246 59.1787L172.474 59.7307C173.422 63.7506 169.954 69.2345 168.124 71.7784C167.243 67.6511 166.586 63.4791 166.156 59.2807Z" fill="black"/>
<path opacity="0.2" d="M179.397 200.042L179.655 206.018H184.665L184.407 200.042H179.397Z" fill="black"/>
<path opacity="0.2" d="M215.312 192.789L210.698 194.379L213.17 200.013L217.784 198.423L215.312 192.789Z" fill="black"/>
<path d="M181.886 26.0047C182.99 30.8466 183.878 33.6245 182.192 36.8044C179.66 41.5383 173.144 41.0823 170.618 36.6664C168.344 32.6885 166.916 25.4407 171.02 22.1768C171.92 21.4547 172.988 20.9739 174.125 20.7801C175.262 20.5862 176.43 20.6856 177.518 21.0688C178.606 21.452 179.578 22.1065 180.342 22.9702C181.107 23.8339 181.638 24.8783 181.886 26.0047Z" fill="#FFC3BD"/>
<path d="M172.161 30.7389L170.319 31.8669L170.493 25.567C169.306 25.618 168.134 25.2787 167.157 24.601C167.823 23.965 178.191 20.3351 181.425 20.9651C181.761 20.8271 182.169 20.2031 182.169 20.2031C182.169 20.2031 182.295 20.9891 181.749 21.2891C182.145 21.2111 183.135 21.4031 183.411 21.9851C182.957 21.861 182.475 21.8884 182.037 22.0631C182.037 22.0631 185.637 22.6091 184.359 27.601C182.925 33.1028 183.399 36.2648 183.399 36.2648C183.399 36.2648 180.723 38.3347 178.395 37.9507C175.911 35.2148 172.323 31.9269 172.161 30.7389Z" fill="#263238"/>
<path d="M168.636 24.1026C165.714 24.1026 164.664 22.6747 163.914 21.4747C166.014 21.2527 170.388 19.9027 173.634 19.6747C176.88 19.4467 180.438 20.0527 179.364 21.4747C178.29 22.8966 168.636 24.1026 168.636 24.1026Z" fill="#263238"/>
<path d="M169.275 22.8137C166.875 22.4777 164.535 20.2158 166.335 18.0498C167.001 19.6398 171.495 19.4538 174.687 18.7878C178.887 17.9118 181.797 19.3278 180.309 22.1897C179.493 23.7557 169.275 22.8137 169.275 22.8137Z" fill="#263238"/>
<path d="M174.754 29.3082C175.097 30.4929 175.042 31.7576 174.598 32.9081C173.998 34.4141 172.666 34.1081 171.97 32.8061C171.37 31.6062 170.914 29.4282 171.934 28.3422C172.954 27.2563 174.322 27.8863 174.754 29.3082Z" fill="#FFC3BD"/>
<path d="M182.226 89.1343C182.226 89.1343 186.522 125.703 189.642 140.031C193.056 155.727 209.898 198.518 209.898 198.518L218.298 195.614C218.298 195.614 207.498 163.395 204.63 141.453C202.428 124.606 199.29 86.6084 199.29 86.6084L182.226 89.1343Z" fill="#263238"/>
<path d="M207.746 195.824C207.704 195.824 209.468 199.424 209.468 199.424L219.278 196.238L218.126 193.311L207.746 195.824Z" fill="#4C9343"/>
<path opacity="0.3" d="M184.593 107.883C185.937 118.047 187.659 130.082 189.171 137.768C191.397 125.99 191.919 111.117 184.593 107.883Z" fill="black"/>
<path d="M172.831 90.5044C172.831 90.5044 169.267 124.86 169.831 140.123C170.395 155.999 177.811 204.85 177.811 204.85H186.289C186.289 204.85 184.729 156.923 185.089 141.335C185.503 124.338 191.875 87.6904 191.875 87.6904L172.831 90.5044Z" fill="#263238"/>
<path d="M176.159 201.482C176.123 201.482 176.639 204.998 176.639 204.998H186.953L187.235 201.86L176.159 201.482Z" fill="#4C9343"/>
<path d="M171.182 56.1163C170.246 57.6043 169.298 58.9423 168.314 60.3162C167.33 61.6902 166.298 63.0162 165.248 64.3361C163.108 67.0139 160.788 69.5436 158.306 71.908C157.634 72.5079 157.016 73.1079 156.29 73.6539L155.762 74.0799L155.498 74.2899C155.402 74.3679 155.36 74.4099 155.162 74.5539C154.568 74.9779 153.915 75.3134 153.224 75.5499C152.155 75.9152 151.036 76.1174 149.906 76.1499C148.95 76.1819 147.993 76.1398 147.044 76.0239C143.574 75.5689 140.188 74.6108 136.994 73.1799L138.032 69.58C141.102 69.9442 144.194 70.0926 147.284 70.024C147.968 69.9882 148.649 69.9141 149.324 69.802C149.833 69.7277 150.327 69.5738 150.788 69.346C150.932 69.268 151.01 69.19 150.992 69.172C150.974 69.154 151.07 69.094 151.124 69.04L151.328 68.854L151.73 68.476C152.27 67.996 152.78 67.4141 153.308 66.8861C154.346 65.7701 155.378 64.6241 156.356 63.4062C157.334 62.1882 158.324 60.9642 159.284 59.7042C160.244 58.4443 161.174 57.1663 162.11 55.8883C163.046 54.6104 163.958 53.2664 164.822 52.0244L171.182 56.1163Z" fill="#FFC3BD"/>
<path d="M174.675 54.519C176.691 61.1189 164.985 68.4327 164.985 68.4327L157.377 58.7429C159.092 55.5479 161.209 52.5859 163.677 49.9291C168.855 44.2953 173.139 49.4971 174.675 54.519Z" fill="#4C9343"/>
<g opacity="0.3">
<path d="M174.675 54.519C176.691 61.1189 164.985 68.4327 164.985 68.4327L157.377 58.7429C159.092 55.5479 161.209 52.5859 163.677 49.9291C168.855 44.2953 173.139 49.4971 174.675 54.519Z" fill="white"/>
</g>
<path d="M139.803 69.7862L133.641 68.6582L134.289 73.9861C134.289 73.9861 137.493 75.786 139.815 72.9721L139.803 69.7862Z" fill="#FFC3BD"/>
<path d="M131.261 69.8582L132.593 73.7041L134.273 73.9861L133.625 68.6582L131.261 69.8582Z" fill="#FFC3BD"/>
</svg>
