<svg width="32" height="32" viewBox="0 0 32 32" fill="none" xmlns="http://www.w3.org/2000/svg">
<path d="M17 7.99984C17 7.44755 16.5523 6.99984 16 6.99984C15.4478 6.99984 15 7.44755 15 7.99984V13.3332C15 13.8855 15.4478 14.3332 16 14.3332C16.5523 14.3332 17 13.8855 17 13.3332V7.99984Z" fill="#4C9343"/>
<path fill-rule="evenodd" clip-rule="evenodd" d="M5.6668 11.9998C5.6668 6.2929 10.2932 1.6665 16.0001 1.6665C21.7071 1.6665 26.3335 6.2929 26.3335 11.9998V12.9386C26.3335 13.8679 26.6085 14.7763 27.124 15.5495L28.6554 17.8467C30.4329 20.5129 29.076 24.1369 25.9845 24.98C24.977 25.2548 23.9609 25.4872 22.939 25.6773L22.9364 25.6841C21.9111 28.42 19.1707 30.3332 16 30.3332C12.8294 30.3332 10.089 28.42 9.06365 25.6841L9.06112 25.6773C8.03925 25.4872 7.02326 25.2548 6.01577 24.98C2.92432 24.1369 1.56737 20.5129 3.34483 17.8467L4.87631 15.5495C5.39175 14.7763 5.6668 13.8679 5.6668 12.9386V11.9998ZM11.4981 26.0491C14.4887 26.4064 17.5114 26.4064 20.502 26.0491C19.5541 27.4112 17.9053 28.3332 16 28.3332C14.0948 28.3332 12.446 27.4111 11.4981 26.0491ZM16.0001 3.6665C11.3978 3.6665 7.6668 7.39746 7.6668 11.9998V12.9386C7.6668 14.2627 7.27487 15.5572 6.54041 16.6589L5.00893 18.9561C3.9887 20.4864 4.76756 22.5666 6.54201 23.0505C12.7343 24.7393 19.2659 24.7393 25.4583 23.0505C27.2327 22.5666 28.0116 20.4864 26.9913 18.9561L25.4599 16.6589C24.7254 15.5572 24.3335 14.2627 24.3335 12.9386V11.9998C24.3335 7.39746 20.6025 3.6665 16.0001 3.6665Z" fill="#4C9343"/>
</svg>
