<svg width="44" height="44" viewBox="0 0 44 44" fill="none" xmlns="http://www.w3.org/2000/svg">
<path fill-rule="evenodd" clip-rule="evenodd" d="M22 0.5C20.7905 0.5 19.6769 0.800573 18.4576 1.30484C17.2802 1.79177 15.9127 2.50942 14.2098 3.40305L10.0748 5.57302C7.98484 6.66974 6.31232 7.54742 5.02095 8.40982C3.68308 9.30328 2.65264 10.244 1.90224 11.5184C1.15436 12.7884 0.817917 14.1637 0.656577 15.8014C0.499971 17.3912 0.499984 19.3463 0.5 21.8051V22.1948C0.499984 24.6537 0.499971 26.6088 0.656577 28.1986C0.817917 29.8363 1.15436 31.2116 1.90224 32.4816C2.65264 33.756 3.68308 34.6967 5.02095 35.5902C6.31226 36.4525 7.98466 37.3302 10.0745 38.4268L14.2097 40.5969C15.9126 41.4905 17.2802 42.2082 18.4576 42.6952C19.6769 43.1994 20.7905 43.5 22 43.5C23.2095 43.5 24.3231 43.1994 25.5424 42.6952C26.7198 42.2082 28.0873 41.4906 29.7902 40.597L33.9252 38.427C36.0151 37.3303 37.6877 36.4526 38.9791 35.5902C40.3169 34.6967 41.3474 33.756 42.0978 32.4816C42.8456 31.2116 43.1821 29.8363 43.3434 28.1986C43.5 26.6089 43.5 24.6537 43.5 22.1949V21.8051C43.5 19.3463 43.5 17.3911 43.3434 15.8014C43.1821 14.1637 42.8456 12.7884 42.0978 11.5184C41.3474 10.244 40.3169 9.30328 38.9791 8.40983C37.6877 7.54742 36.0152 6.66974 33.9252 5.573L29.7902 3.40308C28.0874 2.50943 26.7199 1.79177 25.5424 1.30484C24.3231 0.800573 23.2095 0.5 22 0.5ZM15.5416 6.09215C17.321 5.15835 18.568 4.50559 19.6041 4.07712C20.6125 3.66008 21.3209 3.5 22 3.5C22.6791 3.5 23.3875 3.66008 24.3959 4.07712C25.432 4.50559 26.679 5.15835 28.4584 6.09215L32.4584 8.19126C34.6378 9.33495 36.1689 10.1406 37.313 10.9046C37.8774 11.2816 38.3209 11.6316 38.6789 11.9835L22 20.3229L5.32108 11.9835C5.67912 11.6316 6.12263 11.2816 6.68703 10.9046C7.83106 10.1406 9.36221 9.33495 11.5416 8.19125L15.5416 6.09215ZM3.87537 14.6147C3.77436 15.0425 3.69801 15.5282 3.64212 16.0956C3.50168 17.5212 3.5 19.3288 3.5 21.883V22.117C3.5 24.6712 3.50168 26.4788 3.64212 27.9044C3.77948 29.2988 4.04044 30.2004 4.48735 30.9594C4.93174 31.7141 5.57454 32.3524 6.68703 33.0954C7.83106 33.8594 9.36221 34.6651 11.5416 35.8087L15.5416 37.9078C17.321 38.8417 18.568 39.4944 19.6041 39.9229C19.9312 40.0582 20.2268 40.1664 20.5 40.2509V22.927L3.87537 14.6147ZM23.5 40.2509C23.7732 40.1664 24.0688 40.0582 24.3959 39.9229C25.432 39.4944 26.679 38.8417 28.4584 37.9078L32.4584 35.8087C34.6378 34.6651 36.1689 33.8594 37.313 33.0954C38.4255 32.3524 39.0683 31.7141 39.5127 30.9594C39.9596 30.2004 40.2205 29.2988 40.3579 27.9044C40.4983 26.4788 40.5 24.6712 40.5 22.117V21.883C40.5 19.3288 40.4983 17.5212 40.3579 16.0956C40.302 15.5282 40.2256 15.0425 40.1246 14.6147L23.5 22.927V40.2509Z" fill="#4C9343"/>
</svg>
