<svg width="12" height="12" viewBox="0 0 12 12" fill="none" xmlns="http://www.w3.org/2000/svg">
<g clip-path="url(#clip0_746_3326)">
<path fill-rule="evenodd" clip-rule="evenodd" d="M7.37832 1.31072C8.29262 0.396425 9.77499 0.396425 10.6893 1.31072C11.6036 2.22502 11.6036 3.70739 10.6893 4.62169L5.94663 9.36434C5.67568 9.63532 5.51617 9.79484 5.33872 9.93324C5.12958 10.0964 4.90328 10.2362 4.66383 10.3504C4.46068 10.4472 4.24667 10.5185 3.88312 10.6397L2.21756 11.1949L1.81652 11.3285C1.49123 11.437 1.13261 11.3523 0.890161 11.1098C0.64771 10.8674 0.563051 10.5088 0.671478 10.1835L1.36034 8.11691C1.48151 7.75334 1.55284 7.53933 1.64966 7.33618C1.76377 7.09674 1.90364 6.87043 2.06677 6.66128C2.20517 6.48384 2.36469 6.32433 2.63568 6.05336L7.37832 1.31072ZM2.20026 10.4101L3.62101 9.93646C4.01657 9.80461 4.18464 9.74791 4.34117 9.67331C4.53144 9.58263 4.71126 9.47149 4.87746 9.34186C5.01419 9.23522 5.14006 9.11025 5.4349 8.81542L9.21964 5.03068C8.82531 4.89161 8.31732 4.63381 7.84176 4.15825C7.3662 3.68269 7.1084 3.1747 6.96933 2.78037L3.18459 6.56511C2.88976 6.85995 2.76479 6.98582 2.65815 7.12255C2.52852 7.28875 2.41738 7.46857 2.3267 7.65884C2.2521 7.81537 2.1954 7.98344 2.06355 8.379L1.58996 9.79976L2.20026 10.4101ZM7.57768 2.17202C7.59478 2.2595 7.62368 2.37842 7.67191 2.51744C7.78049 2.83041 7.98561 3.24144 8.37209 3.62792C8.75857 4.0144 9.1696 4.21952 9.48257 4.3281C9.62159 4.37633 9.74051 4.40523 9.82799 4.42233L10.159 4.09136C10.7804 3.46996 10.7804 2.46246 10.159 1.84105C9.53755 1.21965 8.53005 1.21965 7.90865 1.84105L7.57768 2.17202Z" fill="#4C9343"/>
</g>
<defs>
<clipPath id="clip0_746_3326">
<rect width="12" height="12" fill="white"/>
</clipPath>
</defs>
</svg>
