<svg width="21" height="20" viewBox="0 0 21 20" fill="none" xmlns="http://www.w3.org/2000/svg">
<path fill-rule="evenodd" clip-rule="evenodd" d="M9.66675 2.2915C5.86979 2.2915 2.79175 5.36955 2.79175 9.1665C2.79175 12.9635 5.86979 16.0415 9.66675 16.0415C13.4637 16.0415 16.5417 12.9635 16.5417 9.1665C16.5417 5.36955 13.4637 2.2915 9.66675 2.2915ZM1.54175 9.1665C1.54175 4.67919 5.17943 1.0415 9.66675 1.0415C14.1541 1.0415 17.7917 4.67919 17.7917 9.1665C17.7917 13.6538 14.1541 17.2915 9.66675 17.2915C5.17943 17.2915 1.54175 13.6538 1.54175 9.1665ZM17.2983 16.4591C17.1054 16.4444 16.9447 16.6052 16.9594 16.7981C16.9596 16.7991 16.9628 16.8205 16.9789 16.8809C16.9979 16.9518 17.026 17.046 17.0691 17.1896C17.1085 17.3212 17.1341 17.4066 17.1552 17.4699C17.1768 17.5348 17.1842 17.5472 17.181 17.5411C17.2689 17.7052 17.4788 17.7582 17.634 17.6554C17.6283 17.6592 17.6407 17.6518 17.6905 17.605C17.7391 17.5592 17.8021 17.4962 17.8993 17.399C17.9965 17.3019 18.0594 17.2388 18.1052 17.1902C18.144 17.149 18.1558 17.1334 18.1565 17.1325C18.2579 16.9779 18.2053 16.7695 18.0427 16.6815C18.0417 16.6811 18.024 16.6729 17.9702 16.655C17.9068 16.6339 17.8215 16.6083 17.6898 16.5688C17.5463 16.5258 17.4521 16.4976 17.3812 16.4787C17.3207 16.4626 17.2994 16.4594 17.2983 16.4591ZM15.7137 16.9026C15.6344 15.9388 16.439 15.1342 17.4028 15.2135C17.5695 15.2272 17.771 15.2879 17.9886 15.3534C18.0085 15.3594 18.0285 15.3654 18.0486 15.3714C18.0668 15.3769 18.0849 15.3823 18.1029 15.3876C18.3027 15.4472 18.4902 15.5032 18.6314 15.5788C19.4447 16.0143 19.7072 17.0548 19.1979 17.8239C19.1094 17.9575 18.9709 18.0956 18.8233 18.2429C18.81 18.2562 18.7966 18.2695 18.7832 18.2829C18.7698 18.2964 18.7564 18.3097 18.7431 18.323C18.5959 18.4707 18.4577 18.6091 18.3241 18.6976C17.555 19.2069 16.5145 18.9444 16.079 18.1312C16.0034 17.9899 15.9475 17.8025 15.8879 17.6027C15.8825 17.5847 15.8771 17.5666 15.8717 17.5484C15.8656 17.5283 15.8596 17.5082 15.8536 17.4884C15.7881 17.2708 15.7274 17.0692 15.7137 16.9026Z" fill="#A1A1A1"/>
</svg>
