<svg width="41" height="40" viewBox="0 0 41 40" fill="none" xmlns="http://www.w3.org/2000/svg">
<rect x="0.333252" width="40" height="40" rx="20" fill="#F5B01F" fill-opacity="0.16"/>
<path fill-rule="evenodd" clip-rule="evenodd" d="M19.6252 11.3081C19.2315 11.8222 18.7871 12.6155 18.1415 13.7736L17.8138 14.3614C17.7941 14.3968 17.7746 14.4319 17.7553 14.4667C17.4545 15.0079 17.2007 15.4647 16.7917 15.7752C16.3783 16.089 15.8743 16.2023 15.2886 16.3339C15.251 16.3424 15.213 16.3509 15.1747 16.3596L14.5383 16.5035C13.283 16.7876 12.429 16.983 11.8441 17.2135C11.2733 17.4385 11.1528 17.6228 11.1069 17.7704C11.0584 17.9263 11.0569 18.1647 11.3982 18.7068C11.7445 19.257 12.3288 19.9432 13.1834 20.9425L13.6172 21.4498C13.6424 21.4793 13.6674 21.5084 13.6921 21.5373C14.0951 22.0074 14.4312 22.3993 14.5853 22.895C14.7385 23.3877 14.6877 23.9054 14.6262 24.5331C14.6224 24.5716 14.6186 24.6105 14.6148 24.6499L14.5492 25.3267C14.4201 26.6589 14.333 27.5762 14.3625 28.2369C14.3918 28.8965 14.5311 29.0788 14.6419 29.1628C14.7404 29.2376 14.9225 29.3204 15.5157 29.1504C16.1186 28.9777 16.9198 28.6111 18.0953 28.0699L18.6911 27.7956C18.7278 27.7787 18.7641 27.7619 18.8002 27.7452C19.3449 27.4934 19.8176 27.2748 20.3333 27.2748C20.8489 27.2748 21.3216 27.4934 21.8664 27.7452C21.9024 27.7619 21.9388 27.7787 21.9755 27.7956L22.5713 28.0699C23.7467 28.6111 24.5479 28.9777 25.1508 29.1504C25.744 29.3204 25.9261 29.2376 26.0246 29.1628C26.1354 29.0788 26.2747 28.8965 26.3041 28.2369C26.3335 27.5762 26.2465 26.6589 26.1174 25.3267L26.0518 24.6499C26.048 24.6105 26.0442 24.5716 26.0404 24.5331C25.9788 23.9054 25.928 23.3877 26.0812 22.895C26.2354 22.3993 26.5714 22.0074 26.9744 21.5372C26.9992 21.5084 27.0241 21.4793 27.0493 21.4498L27.4832 20.9425C28.3377 19.9432 28.922 19.257 29.2683 18.7068C29.6096 18.1647 29.6081 17.9263 29.5597 17.7704C29.5138 17.6228 29.3933 17.4385 28.8225 17.2135C28.2375 16.983 27.3835 16.7876 26.1282 16.5035L25.4919 16.3596C25.4536 16.3509 25.4156 16.3424 25.3779 16.3339C24.7922 16.2023 24.2883 16.089 23.8748 15.7752C23.4658 15.4647 23.212 15.0079 22.9113 14.4667C22.892 14.4319 22.8725 14.3968 22.8527 14.3614L22.525 13.7736C21.8795 12.6155 21.435 11.8222 21.0413 11.3081C20.648 10.7944 20.447 10.75 20.3333 10.75C20.2195 10.75 20.0186 10.7944 19.6252 11.3081ZM18.4343 10.3961C18.911 9.77363 19.5002 9.25 20.3333 9.25C21.1664 9.25 21.7555 9.77363 22.2322 10.3961C22.7006 11.0077 23.1973 11.8988 23.8043 12.9878L24.1629 13.6311C24.5554 14.3352 24.6559 14.4848 24.7818 14.5804C24.9031 14.6725 25.0595 14.7238 25.8229 14.8965L26.5229 15.0549C27.6985 15.3209 28.6671 15.54 29.3724 15.818C30.1046 16.1065 30.7453 16.5318 30.992 17.325C31.2361 18.1101 30.9618 18.8323 30.5378 19.5059C30.1258 20.1604 29.4677 20.9298 28.6639 21.8698L28.1893 22.4247C27.6723 23.0292 27.5643 23.1772 27.5136 23.3404C27.4618 23.5069 27.4667 23.6992 27.5448 24.5052L27.6163 25.2433C27.7381 26.4994 27.8373 27.5236 27.8026 28.3037C27.7672 29.0977 27.5869 29.8601 26.9316 30.3576C26.2641 30.8643 25.4874 30.8072 24.7376 30.5924C24.0106 30.3841 23.1043 29.9667 22.0038 29.46L21.3481 29.1581C20.6308 28.8278 20.4772 28.7748 20.3333 28.7748C20.1893 28.7748 20.0358 28.8278 19.3184 29.1581L18.6628 29.46C17.5622 29.9667 16.6559 30.3841 15.9289 30.5924C15.1791 30.8072 14.4025 30.8643 13.7349 30.3576C13.0797 29.8601 12.8993 29.0977 12.864 28.3037C12.8292 27.5236 12.9285 26.4993 13.0502 25.2433L13.1217 24.5052C13.1999 23.6992 13.2047 23.5069 13.153 23.3404C13.1022 23.1772 12.9942 23.0292 12.4772 22.4247L12.0027 21.8698C11.1989 20.9299 10.5408 20.1604 10.1288 19.5059C9.70475 18.8323 9.43039 18.1101 9.67452 17.325C9.92119 16.5318 10.5619 16.1065 11.2941 15.818C11.9995 15.54 12.968 15.3209 14.1436 15.0549L14.2073 15.0405L14.8436 14.8965C15.6071 14.7238 15.7635 14.6725 15.8847 14.5804C16.0107 14.4848 16.1111 14.3352 16.5036 13.6311L16.8622 12.9878C17.4693 11.8988 17.9659 11.0077 18.4343 10.3961Z" fill="#F5B01F"/>
</svg>
