<svg width="12" height="12" viewBox="0 0 12 12" fill="none" xmlns="http://www.w3.org/2000/svg">
<path fill-rule="evenodd" clip-rule="evenodd" d="M5.15462 1.12501H6.84534C6.95354 1.12494 7.0478 1.12488 7.13681 1.13909C7.48846 1.19525 7.79276 1.41457 7.95723 1.73042C7.99886 1.81036 8.02861 1.89981 8.06276 2.00247L8.11857 2.16992C8.12801 2.19827 8.13072 2.20629 8.13301 2.21261C8.22057 2.45467 8.44758 2.6183 8.70491 2.62482C8.71167 2.62499 8.71996 2.62502 8.74998 2.62502H10.25C10.4571 2.62502 10.625 2.79291 10.625 3.00002C10.625 3.20713 10.4571 3.37502 10.25 3.37502H1.74994C1.54283 3.37502 1.37494 3.20713 1.37494 3.00002C1.37494 2.79291 1.54283 2.62502 1.74994 2.62502H3.24998C3.28 2.62502 3.28829 2.62499 3.29506 2.62482C3.55238 2.6183 3.77939 2.45468 3.86695 2.21262C3.86925 2.20626 3.8719 2.19841 3.8814 2.16992L3.9372 2.00248C3.97135 1.89982 4.0011 1.81037 4.04273 1.73042C4.2072 1.41457 4.5115 1.19525 4.86315 1.13909C4.95216 1.12488 5.04642 1.12494 5.15462 1.12501ZM4.50401 2.62502C4.52977 2.57451 4.55259 2.52202 4.57223 2.46774C4.57819 2.45126 4.58404 2.43371 4.59155 2.41117L4.64145 2.26146C4.68704 2.12471 4.69753 2.09681 4.70794 2.07682C4.76277 1.97154 4.8642 1.89843 4.98142 1.87971C5.00368 1.87616 5.03345 1.87502 5.17761 1.87502H6.82235C6.96651 1.87502 6.99628 1.87616 7.01854 1.87971C7.13576 1.89843 7.23719 1.97154 7.29202 2.07682C7.30243 2.09682 7.31292 2.1247 7.35851 2.26146L7.40838 2.41108L7.42774 2.46775C7.44737 2.52203 7.47019 2.57451 7.49595 2.62502H4.50401Z" fill="#4C9343"/>
<path d="M2.95748 4.22507C2.94371 4.01843 2.76502 3.86207 2.55837 3.87585C2.35172 3.88963 2.19537 4.06832 2.20914 4.27496L2.44087 7.75083C2.48362 8.3922 2.51815 8.91027 2.59913 9.31681C2.68333 9.73947 2.82654 10.0925 3.12234 10.3692C3.41814 10.646 3.77991 10.7654 4.20724 10.8213C4.61825 10.875 5.13746 10.875 5.78024 10.875H6.21969C6.86247 10.875 7.38171 10.875 7.79272 10.8213C8.22005 10.7654 8.58182 10.646 8.87762 10.3692C9.17342 10.0925 9.31663 9.73947 9.40083 9.31681C9.48181 8.91028 9.51634 8.39221 9.55909 7.75084L9.79082 4.27496C9.80459 4.06832 9.64824 3.88963 9.44159 3.87585C9.23494 3.86207 9.05625 4.01843 9.04248 4.22507L8.81251 7.67463C8.76758 8.34856 8.73557 8.81747 8.66528 9.17028C8.59711 9.5125 8.50194 9.69365 8.36523 9.82155C8.22853 9.94944 8.04145 10.0323 7.69545 10.0776C7.33875 10.1243 6.86874 10.125 6.19332 10.125H5.80664C5.13122 10.125 4.66122 10.1243 4.30451 10.0776C3.95851 10.0323 3.77144 9.94944 3.63473 9.82155C3.49802 9.69365 3.40286 9.5125 3.33468 9.17028C3.2644 8.81747 3.23238 8.34856 3.18745 7.67463L2.95748 4.22507Z" fill="#4C9343"/>
<path d="M4.71267 5.12688C4.91875 5.10627 5.10252 5.25663 5.12312 5.46271L5.37312 7.96271C5.39373 8.16878 5.24338 8.35255 5.0373 8.37316C4.83122 8.39377 4.64745 8.24341 4.62685 8.03733L4.37685 5.53733C4.35624 5.33125 4.50659 5.14749 4.71267 5.12688Z" fill="#4C9343"/>
<path d="M7.2873 5.12688C7.49338 5.14749 7.64373 5.33125 7.62312 5.53733L7.37312 8.03733C7.35252 8.24341 7.16875 8.39377 6.96267 8.37316C6.75659 8.35255 6.60624 8.16878 6.62685 7.96271L6.87685 5.46271C6.89745 5.25663 7.08122 5.10627 7.2873 5.12688Z" fill="#4C9343"/>
</svg>
