<svg xmlns="http://www.w3.org/2000/svg" width="24" height="24" viewBox="0 0 24 24" fill="none">
  <path d="M20.52 3.48A11.93 11.93 0 0012.02 0C5.41 0 .04 5.37.04 12c0 2.1.55 4.17 1.59 6.01L0 24l6.17-1.6A11.88 11.88 0 0012.02 24c6.61 0 11.98-5.37 11.98-12 0-3.2-1.25-6.2-3.48-8.52zM12.02 22.02c-1.95 0-3.86-.52-5.52-1.52l-.4-.23-3.67.95.98-3.58-.25-.37A9.99 9.99 0 012.04 12c0-5.52 4.47-9.98 9.98-9.98 2.67 0 5.18 1.04 7.07 2.93a9.93 9.93 0 012.93 7.07c0 5.52-4.47 9.99-9.99 9.99z" fill="#25D366"/>
  <path d="M17.32 14.02c-.3-.15-1.76-.86-2.03-.96-.27-.1-.47-.15-.67.15-.2.3-.77.96-.95 1.16-.18.2-.35.23-.65.08-.3-.15-1.26-.46-2.4-1.47-.88-.79-1.47-1.77-1.64-2.07-.17-.3-.02-.46.13-.61.14-.14.3-.35.45-.52.15-.18.2-.3.3-.5.1-.2.05-.38-.02-.53-.08-.15-.67-1.6-.92-2.2-.24-.57-.49-.5-.67-.5-.17 0-.37-.02-.57-.02-.2 0-.52.08-.8.38-.27.3-1.05 1.02-1.05 2.49 0 1.46 1.08 2.88 1.24 3.08.15.2 2.13 3.25 5.17 4.43.72.31 1.28.49 1.72.62.72.23 1.38.2 1.9.12.58-.09 1.76-.72 2.01-1.42.25-.7.25-1.3.17-1.42-.07-.12-.27-.2-.57-.35z" fill="#25D366"/>
</svg>

