<svg width="24" height="25" viewBox="0 0 24 25" fill="none" xmlns="http://www.w3.org/2000/svg">
<path d="M12.75 6.5C12.75 6.08579 12.4142 5.75 12 5.75C11.5858 5.75 11.25 6.08579 11.25 6.5V10.5C11.25 10.9142 11.5858 11.25 12 11.25C12.4142 11.25 12.75 10.9142 12.75 10.5V6.5Z" fill="#A1A1A1"/>
<path fill-rule="evenodd" clip-rule="evenodd" d="M4.25004 9.5C4.25004 5.21979 7.71983 1.75 12 1.75C16.2802 1.75 19.75 5.21979 19.75 9.5V10.2041C19.75 10.901 19.9563 11.5824 20.3429 12.1622L21.4915 13.8851C22.8246 15.8848 21.8069 18.6028 19.4883 19.2351C18.7327 19.4412 17.9706 19.6155 17.2042 19.7581L17.2023 19.7632C16.4333 21.8151 14.378 23.25 12 23.25C9.62198 23.25 7.56667 21.8151 6.79768 19.7632L6.79578 19.7581C6.02937 19.6155 5.26738 19.4412 4.51177 19.2351C2.19318 18.6028 1.17547 15.8848 2.50856 13.8851L3.65717 12.1622C4.04375 11.5824 4.25004 10.901 4.25004 10.2041V9.5ZM8.62349 20.0369C10.8664 20.3049 13.1335 20.305 15.3764 20.037C14.6655 21.0585 13.4289 21.75 12 21.75C10.571 21.75 9.33444 21.0585 8.62349 20.0369ZM12 3.25C8.54826 3.25 5.75004 6.04822 5.75004 9.5V10.2041C5.75004 11.1972 5.45609 12.168 4.90524 12.9943L3.75664 14.7172C2.99147 15.8649 3.57561 17.425 4.90644 17.788C9.5507 19.0546 14.4494 19.0546 19.0936 17.788C20.4245 17.425 21.0086 15.8649 20.2434 14.7172L19.0948 12.9943C18.544 12.168 18.25 11.1972 18.25 10.2041V9.5C18.25 6.04822 15.4518 3.25 12 3.25Z" fill="#A1A1A1"/>
</svg>
