<svg width="25" height="24" viewBox="0 0 25 24" fill="none" xmlns="http://www.w3.org/2000/svg">
<path fill-rule="evenodd" clip-rule="evenodd" d="M2.73737 2.28869C2.34442 2.15771 1.91968 2.37008 1.78869 2.76303C1.65771 3.15599 1.87008 3.58073 2.26303 3.71172L2.52794 3.80002C3.20435 4.02549 3.65155 4.17575 3.981 4.32901C4.29296 4.47414 4.42784 4.59093 4.51426 4.71083C4.60068 4.83074 4.66883 4.99562 4.70785 5.33747C4.74907 5.69848 4.7502 6.17024 4.7502 6.88324L4.7502 9.55508C4.75018 10.9227 4.75017 12.025 4.86673 12.892C4.98774 13.7921 5.24664 14.5499 5.84855 15.1519C6.45047 15.7538 7.20834 16.0127 8.10845 16.1337C8.97541 16.2502 10.0777 16.2502 11.4453 16.2502H19.5002C19.9144 16.2502 20.2502 15.9144 20.2502 15.5002C20.2502 15.086 19.9144 14.7502 19.5002 14.7502H11.5002C10.0648 14.7502 9.06367 14.7486 8.30832 14.6471C7.57455 14.5484 7.18598 14.368 6.90921 14.0912C6.81252 13.9945 6.72758 13.8842 6.65378 13.7502H16.5587C17.007 13.7502 17.4014 13.7503 17.7288 13.7149C18.0832 13.6766 18.4266 13.5916 18.7497 13.3786C19.0728 13.1656 19.2862 12.8834 19.461 12.5727C19.6224 12.2857 19.7778 11.9232 19.9544 11.5111L20.4212 10.4219C20.8057 9.52486 21.1273 8.77441 21.2883 8.16406C21.4563 7.52731 21.5 6.8625 21.1038 6.2616C20.7076 5.66069 20.0793 5.43901 19.4278 5.34257C18.8034 5.25013 17.9869 5.25016 17.011 5.2502L6.20696 5.2502C6.20421 5.22221 6.20129 5.19459 6.19817 5.16732C6.14282 4.6825 6.02222 4.23764 5.73112 3.83377C5.44002 3.42989 5.05613 3.1748 4.6137 2.96898C4.19746 2.77534 3.66814 2.59892 3.04176 2.39015L2.73737 2.28869ZM6.2502 6.7502C6.25021 6.78045 6.25021 6.81091 6.2502 6.8416L6.2502 9.5002C6.2502 10.6722 6.25127 11.5546 6.30693 12.2502H16.522C17.0179 12.2502 17.3305 12.2492 17.5678 12.2236C17.787 12.1999 17.8713 12.161 17.924 12.1263C17.9766 12.0916 18.0455 12.0294 18.1537 11.8373C18.2707 11.6292 18.3948 11.3423 18.5901 10.8865L19.0187 9.88652C19.4332 8.91932 19.7087 8.27152 19.8379 7.78145C19.9636 7.30522 19.8999 7.16069 19.8515 7.08734C19.8032 7.01398 19.6954 6.89853 19.2082 6.8264C18.7068 6.75218 18.0029 6.7502 16.9506 6.7502H6.2502Z" fill="#A1A1A1"/>
<path fill-rule="evenodd" clip-rule="evenodd" d="M5.7502 19.5002C5.7502 20.7428 6.75756 21.7502 8.0002 21.7502C9.24284 21.7502 10.2502 20.7428 10.2502 19.5002C10.2502 18.2576 9.24284 17.2502 8.0002 17.2502C6.75756 17.2502 5.7502 18.2576 5.7502 19.5002ZM8.0002 20.2502C7.58599 20.2502 7.2502 19.9144 7.2502 19.5002C7.2502 19.086 7.58599 18.7502 8.0002 18.7502C8.41442 18.7502 8.7502 19.086 8.7502 19.5002C8.7502 19.9144 8.41442 20.2502 8.0002 20.2502Z" fill="#A1A1A1"/>
<path fill-rule="evenodd" clip-rule="evenodd" d="M17.0002 21.7503C15.7576 21.7503 14.7502 20.7429 14.7502 19.5003C14.7502 18.2576 15.7576 17.2503 17.0002 17.2503C18.2428 17.2503 19.2502 18.2576 19.2502 19.5003C19.2502 20.7429 18.2428 21.7503 17.0002 21.7503ZM16.2502 19.5003C16.2502 19.9145 16.586 20.2503 17.0002 20.2503C17.4144 20.2503 17.7502 19.9145 17.7502 19.5003C17.7502 19.0861 17.4144 18.7503 17.0002 18.7503C16.586 18.7503 16.2502 19.0861 16.2502 19.5003Z" fill="#A1A1A1"/>
</svg>
