<svg width="78" height="78" viewBox="0 0 78 78" fill="none" xmlns="http://www.w3.org/2000/svg">
<g filter="url(#filter0_d_1185_1212)">
<rect x="12" y="8" width="54" height="54" rx="27" fill="#4C9343"/>
<path fill-rule="evenodd" clip-rule="evenodd" d="M39 45C44.5228 45 49 40.5228 49 35C49 29.4772 44.5228 25 39 25C33.4772 25 29 29.4772 29 35C29 36.5997 29.3756 38.1116 30.0435 39.4525C30.2209 39.8088 30.28 40.2161 30.1771 40.6006L29.5815 42.8267C29.323 43.793 30.207 44.677 31.1733 44.4185L33.3994 43.8229C33.7839 43.72 34.1912 43.7791 34.5475 43.9565C35.8884 44.6244 37.4003 45 39 45ZM35 36.25C34.5858 36.25 34.25 36.5858 34.25 37C34.25 37.4142 34.5858 37.75 35 37.75H40.5C40.9142 37.75 41.25 37.4142 41.25 37C41.25 36.5858 40.9142 36.25 40.5 36.25H35ZM34.25 33.5C34.25 33.0858 34.5858 32.75 35 32.75H43C43.4142 32.75 43.75 33.0858 43.75 33.5C43.75 33.9142 43.4142 34.25 43 34.25H35C34.5858 34.25 34.25 33.9142 34.25 33.5Z" fill="white"/>
</g>
<defs>
<filter id="filter0_d_1185_1212" x="0" y="0" width="78" height="78" filterUnits="userSpaceOnUse" color-interpolation-filters="sRGB">
<feFlood flood-opacity="0" result="BackgroundImageFix"/>
<feColorMatrix in="SourceAlpha" type="matrix" values="0 0 0 0 0 0 0 0 0 0 0 0 0 0 0 0 0 0 127 0" result="hardAlpha"/>
<feOffset dy="4"/>
<feGaussianBlur stdDeviation="6"/>
<feColorMatrix type="matrix" values="0 0 0 0 0.380392 0 0 0 0 0.243137 0 0 0 0 0.917647 0 0 0 0.5 0"/>
<feBlend mode="normal" in2="BackgroundImageFix" result="effect1_dropShadow_1185_1212"/>
<feBlend mode="normal" in="SourceGraphic" in2="effect1_dropShadow_1185_1212" result="shape"/>
</filter>
</defs>
</svg>
