<svg width="78" height="78" viewBox="0 0 78 78" fill="none" xmlns="http://www.w3.org/2000/svg">
<g filter="url(#filter0_d_1185_2629)">
<rect x="12" y="8" width="54" height="54" rx="27" fill="#4C9343"/>
<path fill-rule="evenodd" clip-rule="evenodd" d="M39 25.75C33.8914 25.75 29.75 29.8914 29.75 35C29.75 36.4811 30.0975 37.8788 30.7148 39.1181C30.9625 39.6155 31.0579 40.2103 30.9016 40.7945L30.306 43.0205C30.1966 43.4293 30.5707 43.8034 30.9795 43.694L33.2055 43.0984C33.7897 42.9421 34.3845 43.0375 34.8819 43.2852C36.1212 43.9025 37.5189 44.25 39 44.25C44.1086 44.25 48.25 40.1086 48.25 35C48.25 29.8914 44.1086 25.75 39 25.75ZM28.25 35C28.25 29.0629 33.0629 24.25 39 24.25C44.9371 24.25 49.75 29.0629 49.75 35C49.75 40.9371 44.9371 45.75 39 45.75C37.2817 45.75 35.6555 45.3463 34.2131 44.6279C33.9979 44.5207 33.7781 44.4979 33.5932 44.5474L31.3672 45.143C29.8434 45.5507 28.4493 44.1566 28.857 42.6328L29.4526 40.4068C29.5021 40.2219 29.4793 40.0021 29.3721 39.7869C28.6537 38.3445 28.25 36.7183 28.25 35ZM34.25 33.5C34.25 33.0858 34.5858 32.75 35 32.75H43C43.4142 32.75 43.75 33.0858 43.75 33.5C43.75 33.9142 43.4142 34.25 43 34.25H35C34.5858 34.25 34.25 33.9142 34.25 33.5ZM34.25 37C34.25 36.5858 34.5858 36.25 35 36.25H40.5C40.9142 36.25 41.25 36.5858 41.25 37C41.25 37.4142 40.9142 37.75 40.5 37.75H35C34.5858 37.75 34.25 37.4142 34.25 37Z" fill="white"/>
</g>
<defs>
<filter id="filter0_d_1185_2629" x="0" y="0" width="78" height="78" filterUnits="userSpaceOnUse" color-interpolation-filters="sRGB">
<feFlood flood-opacity="0" result="BackgroundImageFix"/>
<feColorMatrix in="SourceAlpha" type="matrix" values="0 0 0 0 0 0 0 0 0 0 0 0 0 0 0 0 0 0 127 0" result="hardAlpha"/>
<feOffset dy="4"/>
<feGaussianBlur stdDeviation="6"/>
<feColorMatrix type="matrix" values="0 0 0 0 0.380392 0 0 0 0 0.243137 0 0 0 0 0.917647 0 0 0 0.5 0"/>
<feBlend mode="normal" in2="BackgroundImageFix" result="effect1_dropShadow_1185_2629"/>
<feBlend mode="normal" in="SourceGraphic" in2="effect1_dropShadow_1185_2629" result="shape"/>
</filter>
</defs>
</svg>
