<svg width="24" height="25" viewBox="0 0 24 25" fill="none" xmlns="http://www.w3.org/2000/svg">
<path fill-rule="evenodd" clip-rule="evenodd" d="M11 3.25C6.44365 3.25 2.75 6.94365 2.75 11.5C2.75 16.0563 6.44365 19.75 11 19.75C15.5563 19.75 19.25 16.0563 19.25 11.5C19.25 6.94365 15.5563 3.25 11 3.25ZM1.25 11.5C1.25 6.11522 5.61522 1.75 11 1.75C16.3848 1.75 20.75 6.11522 20.75 11.5C20.75 16.8848 16.3848 21.25 11 21.25C5.61522 21.25 1.25 16.8848 1.25 11.5ZM20.1579 20.2511C19.9264 20.2335 19.7335 20.4264 19.7511 20.6579C19.7514 20.6592 19.7553 20.6848 19.7746 20.7573C19.7974 20.8424 19.8312 20.9554 19.8828 21.1277C19.9301 21.2857 19.9609 21.3881 19.9862 21.4641C20.0121 21.5419 20.021 21.5568 20.0171 21.5496C20.1225 21.7465 20.3745 21.81 20.5607 21.6867C20.5538 21.6912 20.5688 21.6824 20.6284 21.6261C20.6868 21.5712 20.7624 21.4957 20.8791 21.3791C20.9957 21.2624 21.0712 21.1868 21.1261 21.1284C21.1727 21.079 21.1868 21.0602 21.1877 21.0592C21.3093 20.8736 21.2463 20.6236 21.0511 20.518C21.0499 20.5175 21.0287 20.5077 20.9641 20.4862C20.8881 20.4609 20.7857 20.4301 20.6277 20.3828C20.4554 20.3312 20.3424 20.2974 20.2573 20.2746C20.1848 20.2553 20.1591 20.2514 20.1579 20.2511ZM18.2564 20.7833C18.1612 19.6267 19.1267 18.6612 20.2833 18.7564C20.4833 18.7728 20.7251 18.8457 20.9862 18.9242C21.0101 18.9314 21.0341 18.9387 21.0583 18.9459C21.0801 18.9524 21.1018 18.9589 21.1234 18.9654C21.3632 19.0369 21.5881 19.104 21.7576 19.1948C22.7335 19.7173 23.0485 20.9659 22.4373 21.8889C22.3312 22.0492 22.165 22.215 21.9878 22.3917C21.9719 22.4076 21.9558 22.4236 21.9397 22.4397C21.9236 22.4558 21.9076 22.4719 21.8917 22.4878C21.7149 22.665 21.5492 22.8312 21.3889 22.9373C20.4659 23.5485 19.2173 23.2335 18.6948 22.2576C18.604 22.0881 18.5369 21.8632 18.4654 21.6234C18.4589 21.6018 18.4524 21.5801 18.4459 21.5583C18.4387 21.5341 18.4314 21.5101 18.4242 21.4862C18.3457 21.2252 18.2728 20.9833 18.2564 20.7833Z" fill="#A1A1A1"/>
</svg>
